<?xml version="1.0" encoding="utf-8"?>
<!-- Generator: Adobe Illustrator 16.0.0, SVG Export Plug-In . SVG Version: 6.00 Build 0)  -->
<!DOCTYPE svg PUBLIC "-//W3C//DTD SVG 1.1//EN" "http://www.w3.org/Graphics/SVG/1.1/DTD/svg11.dtd">
<svg version="1.1" id="Layer_1" xmlns="http://www.w3.org/2000/svg" xmlns:xlink="http://www.w3.org/1999/xlink" x="0px" y="0px"
	 width="205.319px" height="508.133px" viewBox="0 0 205.319 508.133" enable-background="new 0 0 205.319 508.133"
	 xml:space="preserve">
<path fill="#E9E8D5" d="M195.675,311.631c0,0,7.166-9.27,4.123-38.492c-3.018-29.227-20.967-36.482-20.967-36.482
	s1.006-12.262-11.473-36.439c-12.484-24.172-31.783-26.779-31.783-26.779s0.791-11.346-17.598-32.217
	c-18.377-20.877-26.107-13.49-54.51-60.83C35.065,33.072,49.735,0,49.735,0S-13.019,88.621,2.454,229.014
	C16.468,356.148,147.972,379.77,106.495,487.455c4.08-26.982-11.268-54.637-10.189-56.078c-4.482-5.381,0.814,36.367-2.137,59.564
	c-0.674,5.295-2.844,11.061-6.02,17.191h16.465c5.174-6.512,33.945-43.566,37.83-66.863c4.268-25.627-17.666-57.301-27.508-70.25
	c-9.865-12.984-18.082-19.869-18.082-19.869s14.859,9.775,29.959,29.412c15.141,19.668,16.529,31.947,18.926,35.299
	c2.377,3.363,9.457-2.182,10.561-10.514c1.104-8.342,6.125-53.451,1.736-63.625c-4.395-10.242-2.568-14.002-20.621-23.721
	c-18.031-9.682-13.932-3.031-36.305-17.932c-22.391-14.906-55.943-57.652-55.943-57.652s40.168,41.686,47.541,46.607
	c7.406,4.895,13.537,10.537,26.693,16.295c13.211,5.771,23.662,5.814,27.838-0.98c4.18-6.822-6.328-35.279-17.107-48.68
	c-10.791-13.396-17.201-10.402-32.434-19.814c-15.197-9.406-28.887-20.84-43.699-45.262c-14.795-24.42-20.656-36.131-20.656-36.131
	s22.143,37.641,37.637,52.23c15.492,14.559,32.502,26.604,39.725,28.578c7.203,1.963,11.559,3.979,9.828,0.693
	c-1.715-3.262-43.965-67.252-54.945-97.648C54.589,107.91,50.925,85.873,47.464,65.436c-3.441-20.432-0.242-26.838-0.242-26.838
	s-0.51,9.605,7.639,50.969c8.15,41.383,40.854,94.385,40.854,94.385s25.764,46.057,32.305,47.408
	c6.562,1.355,0.414-7.527,2.018-24.578c1.584-17.041,5.014-16.35,5.014-16.35s-5.021,38.818,4.262,57.439
	c9.291,18.645,14.527,30.857,16.484,36.963c1.975,6.096,3.494,13.668,6.479,6.807c2.996-6.904,5.227-22.779,7.703-29.662
	c2.439-6.889,5.557-9.979,5.557-9.979s-9.582,33.566-10.6,49.75c-1.008,16.197,0.791,53.309,1.785,55.002
	c0.973,1.768,2.666,8.154,6.969,0.367c4.311-7.824,16.766-27.564,16.766-27.564s-9.576,18.65-17.828,38.736
	c-8.236,20.084-13.236,37.508-13.816,42.096c-0.578,4.6-4.338,16.092,1.227,7.727c5.553-8.352,14.215-16.799,17.002-19.393
	c2.787-2.561-21.398,28.904-23.518,34.773c-2.1,5.803-16.172,42.057-48.715,74.639h2.416c9.934-8.592,21.883-19.768,31.557-31.344
	c15.855-18.967,31.957-44.195,36.5-51.975c20.744-35.539,10.643-41.109,10.643-41.109s13.121-6.238,18.244-34.045
	C209.294,321.871,195.675,311.631,195.675,311.631z"/>
</svg>
