<?xml version="1.0" encoding="utf-8"?>
<!-- Generator: Adobe Illustrator 16.0.4, SVG Export Plug-In . SVG Version: 6.00 Build 0)  -->
<!DOCTYPE svg PUBLIC "-//W3C//DTD SVG 1.1//EN" "http://www.w3.org/Graphics/SVG/1.1/DTD/svg11.dtd">
<svg version="1.1" id="Layer_1" xmlns="http://www.w3.org/2000/svg" xmlns:xlink="http://www.w3.org/1999/xlink" x="0px" y="0px"
	 width="15.469px" height="24px" viewBox="0 0 15.469 24" enable-background="new 0 0 15.469 24" xml:space="preserve">
<path fill="#AAAAAA" d="M15.149,10.842l-0.221-0.312l-0.149-0.196L5.432,1.002L5.413,0.98L5.331,0.9C4.764,0.344,3.991,0,3.135,0
	c-0.858,0-1.64,0.348-2.207,0.908l-0.113,0.12C0.309,1.584,0.001,2.324,0.001,3.133c0,0.802,0.301,1.534,0.797,2.088l0.156,0.162
	l6.36,6.624L1.079,18.5l-0.394,0.41C0.256,19.445,0,20.125,0,20.867c0,0.795,0.297,1.523,0.787,2.074l0.272,0.276
	C1.616,23.707,2.338,24,3.135,24c0.756,0,1.451-0.268,1.992-0.715l0.416-0.414l9.232-9.188l0.1-0.109l0.082-0.096
	c0.32-0.398,0.512-0.906,0.512-1.459C15.469,11.59,15.352,11.188,15.149,10.842z"/>
</svg>
