<svg xmlns="http://www.w3.org/2000/svg" width="12" height="7.734" viewBox="0 0 12 7.734"><path fill="#248096" d="M6.579 7.574l.156-.11.098-.076 4.666-4.672.011-.01.04-.041c.278-.283.45-.67.45-1.098 0-.43-.174-.82-.454-1.103l-.06-.057c-.278-.253-.648-.407-1.053-.407-.401 0-.767.15-1.044.398l-.081.078-3.313 3.18-3.245-3.117-.205-.196c-.268-.215-.608-.343-.979-.343-.397 0-.76.148-1.037.393l-.137.136c-.245.278-.392.64-.392 1.038 0 .378.134.726.357.996l.207.208 4.594 4.616.055.05.048.041c.199.16.453.256.729.256.215 0 .416-.058.589-.16z"/></svg>