<?xml version="1.0" encoding="utf-8"?>
<!-- Generator: Adobe Illustrator 16.0.4, SVG Export Plug-In . SVG Version: 6.00 Build 0)  -->
<!DOCTYPE svg PUBLIC "-//W3C//DTD SVG 1.1//EN" "http://www.w3.org/Graphics/SVG/1.1/DTD/svg11.dtd">
<svg version="1.1" id="Layer_1" xmlns="http://www.w3.org/2000/svg" xmlns:xlink="http://www.w3.org/1999/xlink" x="0px" y="0px"
	 width="23.203px" height="36px" viewBox="0 0 23.203 36" enable-background="new 0 0 23.203 36" xml:space="preserve">
<path opacity="0.9" fill="#FFFFFF" enable-background="new    " d="M22.723,16.263l-0.334-0.467l-0.227-0.294L8.145,1.503
	L8.116,1.471l-0.123-0.12C7.146,0.516,5.983,0,4.7,0C3.411,0,2.242,0.521,1.389,1.362l-0.173,0.18C0.463,2.375,0,3.486,0,4.7
	c0,1.203,0.451,2.301,1.195,3.132l0.231,0.243l9.545,9.936l-9.354,9.738l-0.592,0.615C0.38,29.167,0,30.186,0,31.3
	c0,1.192,0.445,2.285,1.181,3.111l0.41,0.416C2.423,35.561,3.504,36,4.7,36c1.137,0,2.18-0.4,2.988-1.072l0.627-0.621L22.16,20.525
	l0.152-0.164l0.123-0.145c0.48-0.598,0.768-1.359,0.768-2.188C23.203,17.385,23.027,16.781,22.723,16.263z"/>
</svg>
