<svg xmlns="http://www.w3.org/2000/svg" width="7.734" height="12" viewBox="0 0 7.734 12"><path opacity=".9" fill="#fff" d="M7.574 5.421l-.111-.156-.076-.098-4.672-4.666-.01-.011-.041-.04c-.282-.278-.67-.45-1.098-.45-.43 0-.819.174-1.103.454l-.058.06c-.251.278-.405.648-.405 1.053 0 .401.15.767.398 1.044l.077.081 3.182 3.312-3.118 3.246-.197.205c-.215.268-.342.608-.342.979 0 .397.148.761.393 1.037l.137.138c.277.244.638.391 1.036.391.379 0 .727-.134.996-.357l.209-.207 4.615-4.594.051-.055.041-.048c.16-.199.256-.453.256-.729 0-.215-.058-.416-.16-.589z"/></svg>