<svg xmlns="http://www.w3.org/2000/svg" width="12" height="7.734" viewBox="0 0 12 7.734"><path opacity=".9" fill="#fff" d="M5.421.16l-.156.11-.098.077-4.666 4.672-.011.01-.04.04c-.278.283-.45.67-.45 1.098 0 .43.174.82.454 1.103l.06.057c.278.253.648.407 1.053.407.401 0 .767-.15 1.044-.398l.081-.077 3.312-3.181 3.246 3.117.205.196c.268.215.608.343.979.343.397 0 .761-.148 1.037-.393l.138-.137c.244-.276.391-.639.391-1.037 0-.378-.134-.726-.357-.996l-.207-.208-4.594-4.616-.055-.05-.048-.041c-.199-.16-.453-.256-.728-.256-.216 0-.417.059-.59.16z"/></svg>