<svg xmlns="http://www.w3.org/2000/svg" width="7.734" height="12" viewBox="0 0 7.734 12"><path fill="#aaa" d="M.16 6.579l.11.156.077.098 4.672 4.666.01.011.041.04c.282.278.669.45 1.097.45.43 0 .82-.174 1.103-.454l.057-.06c.253-.278.407-.648.407-1.054 0-.401-.15-.767-.398-1.044l-.077-.08-3.181-3.313 3.117-3.245.196-.205c.215-.268.343-.608.343-.979 0-.397-.148-.761-.393-1.037l-.136-.137c-.277-.245-.64-.392-1.038-.392-.378 0-.726.134-.996.357l-.208.207-4.616 4.594-.05.055-.041.048c-.16.199-.256.453-.256.728 0 .216.059.417.16.59z"/></svg>