<svg xmlns="http://www.w3.org/2000/svg" width="7.734" height="12" viewBox="0 0 7.734 12"><path opacity=".9" fill="#fff" d="M.16 6.579l.11.156.076.098 4.672 4.666.011.011.04.04c.283.278.669.45 1.097.45.431 0 .82-.174 1.104-.454l.057-.06c.254-.278.408-.648.408-1.054 0-.401-.15-.767-.398-1.044l-.079-.08-3.18-3.312 3.117-3.246.195-.205c.215-.268.344-.608.344-.979 0-.397-.148-.761-.393-1.037l-.136-.137c-.277-.245-.641-.392-1.039-.392-.377 0-.725.134-.996.357l-.207.207-4.617 4.594-.049.055-.041.048c-.16.199-.256.453-.256.728 0 .216.059.417.16.59z"/></svg>