<svg xmlns="http://www.w3.org/2000/svg" width="20" height="20" viewBox="0 0 20 20"><path fill="#ddd" d="M3.227 19.5c-1.504 0-2.727-1.223-2.727-2.727v-13.546c0-1.504 1.223-2.727 2.727-2.727h13.546c1.504 0 2.727 1.223 2.727 2.727v13.546c0 1.504-1.223 2.727-2.727 2.727h-13.546z"/><path fill="#767676" d="M16.773 1c1.228 0 2.227.999 2.227 2.227v13.546c0 1.228-.999 2.227-2.227 2.227h-13.546c-1.228 0-2.227-.999-2.227-2.227v-13.546c0-1.228.999-2.227 2.227-2.227h13.546m0-1h-13.546c-1.779 0-3.227 1.447-3.227 3.227v13.546c0 1.779 1.448 3.227 3.227 3.227h13.546c1.78 0 3.227-1.448 3.227-3.227v-13.546c0-1.779-1.448-3.227-3.227-3.227z"/></svg>