<svg xmlns="http://www.w3.org/2000/svg" width="20" height="20" viewBox="0 0 20 20"><path fill="#aaa" d="M16.773 0h-13.546c-1.779 0-3.227 1.447-3.227 3.227v13.546c0 1.779 1.448 3.227 3.227 3.227h13.546c1.78 0 3.227-1.448 3.227-3.227v-13.546c0-1.779-1.448-3.227-3.227-3.227z"/><path fill="#ddd" d="M3.227 19.5c-1.504 0-2.727-1.223-2.727-2.727v-13.546c0-1.504 1.223-2.727 2.727-2.727h13.546c1.504 0 2.727 1.223 2.727 2.727v13.546c0 1.504-1.223 2.727-2.727 2.727h-13.546z"/><path fill="#767676" d="M16.773 1c1.228 0 2.227.999 2.227 2.227v13.546c0 1.228-.999 2.227-2.227 2.227h-13.546c-1.228 0-2.227-.999-2.227-2.227v-13.546c0-1.228.999-2.227 2.227-2.227h13.546m0-1h-13.546c-1.779 0-3.227 1.447-3.227 3.227v13.546c0 1.779 1.448 3.227 3.227 3.227h13.546c1.78 0 3.227-1.448 3.227-3.227v-13.546c0-1.779-1.448-3.227-3.227-3.227zm1.195 4.777c-.126-.646-.498-1.203-1.045-1.57-1.092-.729-2.682-.426-3.426.652l-4.901 7.148-2.278-2.118c-.949-.89-2.59-.841-3.488.101-.455.478-.696 1.103-.677 1.759.02.658.297 1.269.782 1.721l4.387 4.078c.46.431 1.061.667 1.69.667l.271-.014c.72-.081 1.365-.468 1.773-1.061l6.529-9.519c.373-.544.507-1.199.383-1.844z"/></svg>