<svg xmlns="http://www.w3.org/2000/svg" width="20" height="20" viewBox="0 0 20 20"><path fill="#ddd" d="M17.102 1c1.046 0 1.898.852 1.898 1.899v14.201c0 1.047-.852 1.899-1.898 1.899h-14.203c-1.047 0-1.899-.853-1.899-1.899v-14.201c0-1.047.852-1.899 1.899-1.899h14.203m0-1h-14.203c-1.6 0-2.899 1.297-2.899 2.899v14.201c0 1.6 1.299 2.899 2.899 2.899h14.202c1.6 0 2.898-1.3 2.898-2.899v-14.201c.001-1.602-1.298-2.899-2.897-2.899z"/><path fill="#1D8197" d="M17.834 4.81c-.125-.643-.494-1.195-1.039-1.56-1.084-.725-2.664-.424-3.402.647l-4.87 7.102-2.264-2.103c-.943-.885-2.573-.836-3.466.1-.452.475-.691 1.096-.673 1.748.02.654.295 1.261.776 1.71l4.358 4.052c.457.428 1.054.662 1.68.662l.27-.014c.716-.08 1.356-.464 1.762-1.054l6.487-9.457c.371-.541.504-1.193.381-1.833z"/></svg>