<svg xmlns="http://www.w3.org/2000/svg" width="33" height="26" viewBox="0 0 33 26"><path d="M30.717 4.305c0 1.367-1.075 2.475-2.4 2.475h-23.632c-1.327 0-2.401-1.108-2.401-2.475v-.381c0-1.367 1.074-2.475 2.401-2.475h23.632c1.325 0 2.4 1.109 2.4 2.475v.381zm0 8.885c0 1.366-1.075 2.476-2.4 2.476h-23.632c-1.327 0-2.401-1.109-2.401-2.476v-.38c0-1.367 1.074-2.475 2.401-2.475h23.632c1.325 0 2.4 1.108 2.4 2.475v.38zm0 8.886c0 1.366-1.075 2.475-2.4 2.475h-23.632c-1.327 0-2.401-1.108-2.401-2.475v-.382c0-1.366 1.074-2.475 2.401-2.475h23.632c1.325 0 2.4 1.108 2.4 2.475v.382z" fill="#fff"/></svg>