<svg xmlns="http://www.w3.org/2000/svg" width="132.955" height="175" viewBox="0 0 132.955 175"><path fill="#fff" d="M52.647 34.646c-.417-.584-.305-.422.26-1.164.557-.752.265-.402 1.141-.202.881.183.949.557.635 1.054-.313.518-1.139.562-2.036.312zm39.411-18.619s5.292 5.574 4.696 16.559c-.604 10.982-6.289 19.656-6.289 19.656s7.991-7.579 7.587-20.25c-.395-12.673-5.994-15.965-5.994-15.965z"/><path fill-rule="evenodd" clip-rule="evenodd" fill="#fff" d="M125.833 97.254s.604-5.536-2.641-6.611c-3.254-1.078-5.806-1.475-6.895 1.261-1.071 2.754-1.997 7.729-3.116 9.893-1.116 2.165-3.302 3.978-4.744 3.978-1.439 0-4.535-.211-4.535-.211l-.819-1.934s3.553 1.415 5.354.514c1.802-.904 3.36-1.746 4.266-5.535.897-3.779.178-9.98 1.623-13.59 1.432-3.596 4.683-7.432 8.513-7.069 3.812.366 5.649.584 7.584 4.207 1.677 3.137 2.71 7.81-.607 15.712-2.152 5.109-4.013 6.972-5.602 12.631-1.718 6.151 2.811 6.883 4.779 11.756 1.992 4.859.371 4.659 0 8.088-.355 3.422.822 8.134.822 8.134l-2.446-2.321s1.155-6.379.604-8.906c-.544-2.513-5.152-6.891-5.152-6.891s3.474 5.061 3.316 9.192c-.197 5.406-2.398 10.247-2.398 10.247s2.155-5.762-.097-10.346c-1.434-2.912-1.94-1.588-3.57-5.873-1.168-3.078-1.025-6.648-1.025-6.648s-1.488 3.428-.756 7.428c.718 4.002 1.293 3.601.573 6.168-.785 2.811-3.106 5.629-3.106 5.629s1.969-3.129.791-7.005c-1.259-4.154-2.037-3.222-1.938-7.257.132-5.367 4.072-8.241 4.072-8.241s-3.078-.06-4.896 4.267c-1.799 4.327-1.264 6.262-1.264 6.262s-2.166-4.139.542-8.328c2.691-4.18 3.267-2.596 6.872-7.474 3.611-4.863 6.712-6.837 7.256-12.295.543-5.44-.114-10.134-2.557-10.702-5.406-1.271-7.797 3.637-7.797 3.637s4.106-2.778 7.212-.794c3.104 1.976 1.782 9.027 1.782 9.027zm5.913-1.32s-.816 3.149-3.055 8.312c-1.515 3.48-3.424 7.396-1.536 11.424 1.057 2.25 2.259 2.662 3.884 6.584 1.635 3.934-.307 6.631-.307 6.631s2.862-2.909 2.091-6.117c-.766-3.212-3.631-6.62-4.335-8.474-1.125-2.962.491-7.479 1.424-9.943 1.834-4.861 1.834-8.417 1.834-8.417z"/><path fill="#fff" d="M66.684.99s1.35-.99 3.13-.99c1.784 0 4.091 1.155 4.091 1.155s.165 1.651-.168 2.478c-.327.814-.327 1.441-.327 1.441l-1.981.328s.036-1.275-1.451-2.596c-1.484-1.318-3.294-1.816-3.294-1.816zm-4.57 1.645s1.932-.822 4.57.324c2.64 1.168 2.302 3.598 2.302 3.598s-.327.492-1.487 1.321c-1.154.819-1.317.819-1.317.819s-.723-.757-1.925-1c-1.181-.24-3.452-.166-1.321-.658 1.333-.301 3.746.586 3.749-.146 0-.845-.576-2.2-1.565-2.849-.988-.669-3.006-1.409-3.006-1.409zm18.674 3.096s1.13-1.076 2.476-1.78c1.337-.686 4.413-.992 4.413-.992s-1.985.836-3.291 2.772c-1.257 1.858-1.617 2.966-1.617 2.966l-.829-.492-1.152-2.474zm4.58 4.123s3.978-1.976 5.771-2.301c1.773-.334 2.105-.504 3.583 0 1.491.488 1.612 0-.978.982-2.605.986-4.259 3.746-4.259 3.746s-.987-.943-1.809-1.6c-.823-.66-2.308-.827-2.308-.827z"/><path fill-rule="evenodd" clip-rule="evenodd" fill="#fff" d="M91.267 13.939s.823.823 3.454.659c2.644-.172 2.932-1.155 5.574-.331 2.635.82 3.786 2.81 3.786 2.81l-2.796.159s-1.514-.984-2.637-1.146c-1.12-.165-2.938.162-2.938.162s1.776.199 3.438 1.475c1.641 1.287 1.313 1.949 3.118 3.272 1.814 1.314 3.27 1.022 4.257 2.962.991 1.942 2.636 5.234 2.636 5.234s-2.012-1.15-3.798-.988c-1.775.17-2.432.988-3.42.497-.987-.497-2.304-1.487-2.304-1.487l-.541-3.422s1.622 1.27 2.845 1.318c.516.023 1.325-.172 1.325-.172s-2.613-.737-2.984-2.117c-.314-1.18-2.918-2.486-2.918-2.486s-2.146-3.596-2.974-4.248c-.813-.672-3.123-2.151-3.123-2.151zm17.721 22.809s-2.173-2.773-3.451-4.252c-1.286-1.486-1.455-1.659-1.455-1.659s-.814.498-1.647.173c-.816-.33-2.969-1.479-2.969-1.479s.503 1.678.503 2.639c0 .941-.165 1.771-.165 1.771s1.482-.661 2.631 0c1.152.666 1.285-.494 2.607 0l3.946 2.807zm-9.185-.661s.822-.657 1.482-.329c.656.329 1.316.817 1.316.817s-.791 2.11.822 3.927c1.617 1.812 4.581 4.123 4.914 7.711.322 3.584-.67 6.062-.67 6.062s1.042-3.156-2.464-7.203c-2.115-2.447-1.123-1.137-4.088-1.793-2.509-.562-2.631-2.811-2.631-2.811s.264-.67.498-1.467c.167-.619 4.105 4.441.319-1.793-.178-.284.053-.742.102-1.154.157-.985.4-1.967.4-1.967zm-6.731 17.233s5.177-3.718 7.81-.623c2.63 3.096.566 4.048.28 8.091-.275 3.95 4.043 5.816 4.043 5.816s-1.823-1.375.283-6.441c1.064-2.548.86-11.161-5.363-11.624-1.411-.101-2.433-2.275-2.433-2.275s-.996 2.441-1.98 3.756c-.991 1.324-2.64 3.3-2.64 3.3zm-26.225 2.102s3.299-.819 3.758-1.639c.459-.827.326-1.946 2.137-1.453 1.811.492 1.615 3.26 4.58 3.922 2.969.662 8.369-.494 8.369-.494s-5.733 3.46-8.656 3.119c-2.932-.319-2.465-2.303-4.452-3.307-1.969-.982-5.736-.148-5.736-.148z"/><path fill="#fff" d="M91.042 54.817s-2.406 1.098-3.642 2.758c-2.382 3.163-.569 1.088-2.681 3.855-1.749 2.3-2.779 3.118-7.063 3.946-1.492.285-7.347-.828-7.347-.828s2.768 2.609 8.816 2.152c5.62-.432 7.886-2.315 7.886-2.315s-1.903 5.215-12.292 4.411c-2.708-.203-4.958 1.181-4.958 1.181s0 2.058-1.757 4.224c-1.787 2.211-3.625 2.48-3.625 2.48s2.287 1.002 6.353-3.201c1.607-1.672.457-1.968 1.998-2.478 1.03-.345 6.692.027 12.127-1.646 3.986-1.247 5.769-6.384 6.104-8.448.08-.499-6.458 3.482-1.917-3.064.629-1.099 1.998-3.027 1.998-3.027zm3.253.276c1.299-.754 2.4-1.551 3.855-.407 2.092 1.652-.325 3.183.166 6.312.494 3.127 1.689 4.696 1.689 4.696s-2.603 1.702-3.868 2.965c-1.508 1.521-1.508 3.448-1.508 3.448s-1.238-2.202 1.249-4.888c1.339-1.424 2.251-3.946 1.221-6.538-1.779-4.556-3.66-3.352-6.125-1.736-1.988 1.323.484-2.2 3.321-3.852zm-47.445-5.239s-3.427-2.736-5.571-3.563c-2.138-.818-4.185-3.296-5.135-4.775-.972-1.489-2.282-3.91-4.907-5.682-2.439-1.652-2.609-.979-9.17.183-6.554 1.145-7.059 1.357-9.884 1.357-4.533 0-6.415 2.283-4.355 2.631 3.921.657 4.593 3.521 5.629 2.355 2.256-2.527 4.912-2.816 8.343-2.98 3.421-.17 5.245-.854 6.363.126 1.116.997.132 1.156 1.777 2.646 1.646 1.473.987.197 1.976 2.475.993 2.263 1.643 7.669 6.723 10.468 5.079 2.812 4.576 2.251 4.576 2.251s.171-2.699 1.322-4.35c1.155-1.652 2.313-3.142 2.313-3.142zm-38.219-7.672s-2.149-1.352-4.753.619c-2.604 1.989-3.984 5.285-3.333 5.525 1.06.381 5.198-.24 5.477-1.051.696-2.087.785-3.246 1.448-3.914.662-.654 1.161-1.179 1.161-1.179zm-8.212 6.502c-.349-.145-.424-.489-.419-.72.04-1.189 1.385-3.704 3.637-5.461 1.163-.888 2.273-1.155 3.154-1.155 1.219 0 2.004.49 2.036.508l-.196.326.196-.326.397.253-.324.336s-.51.523-1.161 1.178c-.525.496-.668 1.646-1.366 3.771-.588 1.091-3.096 1.336-4.823 1.426-.459-.009-.824-.031-1.131-.136zm1.131-.625c.768 0 1.808-.133 2.66-.337.865-.161 1.46-.522 1.446-.571.704-2.053.744-3.209 1.545-4.061.311-.305.573-.57.776-.782-.28-.102-.683-.199-1.186-.199-.729 0-1.659.21-2.683.994-2.089 1.55-3.383 4.165-3.341 4.861v.034c.162.032.453.061.783.061zm23.937 50.089c1.251 1.408 1.8 1.818 3.248 2.609 1.452.801 2.175.572 2.175.572s.166-1.675.103-2.693c-.094-1.613-.932-2.713-.932-2.713s-1.733-.344-2.703-.822c-.753-.371-.921-1.781-.921-1.781s-3.092 2.444-.97 4.828zm3.065 2.942c-1.461-.797-2.096-1.271-3.348-2.689l.282-.252.285-.248c1.243 1.391 1.71 1.723 3.148 2.528.811.438 1.355.538 1.638.548.034-.416.094-1.173.094-1.832l-.013-.486c-.079-1.193-.592-2.092-.787-2.395-.444-.088-1.771-.393-2.635-.828-.568-.319-.854-.898-.989-1.369-.469.502-1.124 1.365-1.114 2.279.008.486.173.988.658 1.555l-.285.248-.281.251c-.604-.667-.848-1.39-.84-2.055.025-1.936 1.84-3.293 1.84-3.324l.533-.417.092.671c.005 0 .245 1.32.715 1.482.892.445 2.601.793 2.607.793l.138.029.093.109c.016.033.898 1.188 1.011 2.928l.008.527c0 1.016-.12 2.213-.12 2.219l-.024.26-.252.067c-.025.015-.157.043-.39.043-.399.001-1.099-.101-2.064-.642zm28.63-5.641s.145 3.732 2.124 6.217c1.975 2.471 4.906 3.982 6.226 5.604 1.315 1.606 2.305 4.25 2.305 4.25s-2.01-.518-2.673 2.252c-.657 2.767.977 4.788.188 5.279-.781.492-3.583.99-7.166 3.256-3.598 2.266-12.338 7.507-13.784 8.991-1.453 1.483-2.83 3.076-2.83 3.076s-.889-1.025-2.538-.366c-1.642.666-1.8 1.549-1.8 1.549l-3.732-.445s1.772-1.986 2.282-3.461c.485-1.489 2.44-.542 4.587-1.709 2.142-1.141 4.715-3.081 8.477-6.181 3.756-3.101 7.354-5.396 6.696-7.326-.663-1.95-4.96-3.408-7.063-8.651-2.111-5.243-.792-10.148.81-10.979 1.619-.823 7.891-1.356 7.891-1.356zm-25.527 41.923c-.65.833-.808 2.095-1.16 3.672-.343 1.581-.229 3.341-.229 3.341s2.577-.42 4.188-2.23c1.616-1.814 1.582-3.289 1.455-3.949-.125-.666-.784-1.158-.784-1.158s-2.813-.499-3.47.324zm-1.768 7.042c0-.014-.022-.322-.022-.782 0-.685.041-1.688.259-2.676.351-1.558.485-2.851 1.236-3.823.495-.574 1.295-.598 2.046-.613.912 0 1.767.146 1.933.224.02.021.752.521.942 1.394.035.164.067.388.057.657.011.862-.305 2.158-1.604 3.606-1.721 1.944-4.373 2.342-4.403 2.357l-.412.057-.032-.401zm.976-3.287c-.195.889-.242 1.863-.242 2.505l.009.278c.764-.205 2.434-.752 3.543-2.016 1.173-1.328 1.4-2.413 1.406-3.101-.006-.215-.021-.384-.043-.518-.071-.42-.516-.82-.516-.862-.143-.023-.874-.145-1.614-.145-.686-.016-1.353.156-1.455.336-.561.697-.736 1.917-1.088 3.523zm58.791 33.359s2.931-.82 4.245-2.305c1.319-1.48 1.812-1.947 1.812-2.762 0-.827-.157-3.796-.157-3.796s-.503.659-1.978.992c-1.486.323-1.618.654-2.438 1.977-.824 1.325-1.484 5.894-1.484 5.894zm-.371-.056c.007-.025.617-4.538 1.525-6.046.77-1.276 1.14-1.832 2.681-2.145 1.397-.307 1.75-.849 1.75-.849l.625-.842.061 1.049s.17 2.962.17 3.822c-.023 1.025-.628 1.551-1.908 3.011-1.46 1.617-4.405 2.403-4.426 2.415l-.106-.359.106.359-.567.155.089-.57zm4.368-7.444c-1.428.35-1.306.445-2.197 1.799-.574.895-1.122 3.852-1.339 5.143.909-.315 2.653-1.019 3.503-2 1.351-1.509 1.729-1.909 1.719-2.508 0-.548-.072-2.098-.13-3.035-.337.211-.845.445-1.556.601zm7.498-52.035c2.207-7.697 1.055-6.535-1.32-11.607-2.382-5.088-2.686-6.551-5.838-9.58 0 0-.897-1.836-6.314-6.307-3.396-2.787-5.097-5.148-6.695-8.85-1.159-2.699-.989-5.689-.989-5.689s-5.488.325-6.487 1.1c-1.518 1.17-5.373 5.621-9.69 5.386-7.387-.397-8.19-4.188-8.19-4.188s9.603 2.396 11.588-3.895c.519-1.637-2.195-.994-5.491.998-1.34.812.2-3.796 5.286-3.994 6.89-.271 3.695-1.299.404-2.094-3.441-.843-7.691.908-7.691.908s1.279-1.805 4.899-3.896c5.225-3.027 9.34.361 11.479.197 5.29-.402 7.479-4.307 7.479-4.307s-3.29 2.236-6.684 2.307c-5.496.105-4.083-3.771-8.282-4.295-3.196-.399-5.488 3.1-5.488 3.1s-1.201-5.295 3.687-6.689c3.416-.977 1.729-3.896 4.901-3.896 6.487 0 4.003 3.877 7.762 4.457 3.738.572 6.062-.996 8.367-3.102 2.964-3.125 9.195-18.411 4.868-28.123-1.918-5.254-3.964-8.18-5.906-9.875v-.017c-1.975-1.712-3.854-2.154-5.385-2.458-1.011-.206-1.804-2.598-1.804-2.598s-.4-2.802-1.356-5.022c-1.301-3.016-2.597-2.32-2.597-2.32s-.183.791.054 2.643c.233 1.853-.054 3.432-.054 3.432s-1.129 2.27-1.941 1.465c-.82-.813-.798-1.797-.798-1.797s-1.144.262-4.165 3.055c-3.038 2.782-4.133 3.086-5.069 6.289-1.546 2.783-3.322 5.367-6.73 8.079-3.404 2.699-5.937 3.505-6.797 4.325-1.425.9-.378 1.193 0 2.071.37.878.224 2.083 2.943 1.388 1.945.061 2.253.751 2.89 1.18 2.254 1.498-1.252 4.115 0 4.318 2.873.51 2.254-3.461 3.258-4.318.991-.875 1.574-.942 3.203-1.38 1.618-.444 2.438-.626 3.381-.19.932.451 5.273 2.428 8.477.945 7.625-1.437 9.977-12.056 9.977-12.056s-.062.054-.05.239l.05.13c.096 1.836-.064 10.056-9.689 15.528-3.013 2.26-3.832 2.91-5.269 3.332-1.446.434-3.191-.441-6.386 1.241-3.198 1.7-3.64 2.757-5.264 3.837-1.624 1.061-3.941.92-4.883 2.117-.938 1.192-2.439 2.763-3.688 5.262-1.26 2.504-3.209 4.254-3.392 6.264-.186 2.009-.186 4.312-.186 4.312s1.63-.068 3.133 0c1.508.068 3.438.129 3.438.129s.265-.973 2.577-3.439c1.75-1.883 3.599-3.275 3.994-2.693.444.627-.994.688-2.489 2.693-2.077 2.767-1.886 5.629-1.886 5.629s-5.957-.31-10.335-.118c-4.376.184-3.751-.302-5.37.067-1.638.383-8.898 2.123-10.406 2.244-1.493.133-3.565-.475-5.119.959-1.557 1.447-.884 4.387-.944 5.367-.062.994.434 10.445.061 11.461-.378 1.001-1.134 2.996-.696 4.189.438 1.187 1.003 1.375 1.628 3.201.633 1.813 3.434-1.126 4.439-2.641.345-.498 1.132-1.258 0-1.943-.076-.223-.122.117-.861-1.908-1.142-3.061-1.088-2.51-.778-5.586.316-3.066-.159-4.502.286-5.076.42-.564-.017-.625.679-1.135.684-.488 1.888-1.882 2.885-2.004.998-.125 5.245.701 8.822.497 3.569-.176 8.354-.094 12.249-.491 6.898-.687 7.934-2.754 8.688-2.193.418.309 1.34 2.869-3.101 3.996-4.353 1.098-7.007.384-7.007.384s2.876 4.812 5.002 8.767c2.137 3.938 2.812 7.955 5.196 11.147 1.159 2.933-.205 6.294 6.408 10.319 2.389 1.449 4.37 7.117 4.37 7.117.672.469.085 1.307 1.876.949 1.801-.355 2.889.357 2.889.357s-.365-.934.723-5.071c1.073-4.146 4.048-9.416 4.048-9.416s-2.213 5.803-2.037 13.048c.182 7.252.725 9.984 2.893 14.325 2.167 4.323 2.422 3.692 7.336 8.225 4.9 4.554 5.62 5.283 5.989 9.423.358 4.145.535 4.382 0 8.972-.524 4.365-.107 6.259-1.787 9.862-.527 1.137-1.452 2.492-.192 2.857 1.271.36 1.353-.766 2.794-2.025 1.437-1.261 3.334-.362 3.334-4.18 0-3.816-1.107-2.643-.383-8.801.727-6.167 2.854-8.521 2.318-10.502-.551-1.983-2.5-1.525-3.221-4.818-.727-3.275-.919-9.076-2.543-10.881-1.626-1.803 3.79 1.541 6.715-8.625zm-44.386-85.099c-.476.569-2.057.945-2.057.945-.012-.402.131-1.348.131-1.348l-.828.102s-1.271-.01-1.271 0c-.209-1.733 1.827-2.419 3.331-1.965 1.504.451 1.179 1.695.694 2.266zm18.361-12.528c-1.184 1.22-4.731 1.479-5.452 1.479-.729 0-1.322-.416-1.945-.752-.62-.337.027-.818.179-.868.155-.054.664-.53.739-.585.08-.049.367-.554.752-.701.39-.139.803.018 1.155.225.346.205.78.297.78.297h.06s.143.285.143.324c-.053.064-.155.038-.456.025-.295-.013-.632-.362-.916-.26-.287.105-.155.609-.155.598.4.621 1.025.582 1.011.568 1.915-.763 2.707-2.021 2.707-2.021-.013-.115-3.332-.375-3.938-.451-.609-.077-.404-.608-.066-.608l4.624-.312s.442.091.881.647c.444.555 1.071 1.178-.103 2.395z"/></svg>