<svg xmlns="http://www.w3.org/2000/svg" width="106.364" height="140" viewBox="0 0 106.364 140"><path fill="#fff" d="M42.118 27.717c-.335-.466-.243-.336.208-.931.443-.602.211-.32.913-.163.703.146.758.447.507.844-.252.414-.912.451-1.628.25zm31.528-14.895s4.232 4.459 3.757 13.247c-.483 8.784-5.031 15.726-5.031 15.726s6.393-6.064 6.07-16.201c-.317-10.139-4.796-12.772-4.796-12.772z"/><path fill-rule="evenodd" clip-rule="evenodd" fill="#fff" d="M100.665 77.804s.483-4.43-2.111-5.29c-2.604-.862-4.644-1.18-5.516 1.01-.858 2.202-1.599 6.184-2.493 7.912-.895 1.733-2.642 3.183-3.796 3.183-1.151 0-3.628-.167-3.628-.167l-.654-1.548s2.842 1.13 4.282.41c1.443-.722 2.688-1.396 3.413-4.427.717-3.024.142-7.984 1.299-10.872 1.146-2.879 3.746-5.944 6.811-5.655 3.049.291 4.518.466 6.067 3.364 1.341 2.51 2.167 6.248-.488 12.571-1.721 4.086-3.21 5.578-4.479 10.104-1.375 4.921 2.248 5.505 3.822 9.403 1.595 3.889.298 3.728 0 6.473-.283 2.734.657 6.505.657 6.505l-1.956-1.856s.925-5.103.484-7.125c-.435-2.011-4.123-5.512-4.123-5.512s2.778 4.048 2.654 7.352c-.16 4.326-1.919 8.199-1.919 8.199s1.725-4.609-.077-8.276c-1.148-2.331-1.553-1.271-2.856-4.698-.934-2.463-.82-5.32-.82-5.32s-1.19 2.744-.604 5.944c.574 3.2 1.033 2.878.457 4.933-.629 2.248-2.483 4.504-2.483 4.504s1.574-2.504.632-5.605c-1.007-3.322-1.628-2.574-1.551-5.805.106-4.293 3.259-6.593 3.259-6.593s-2.461-.047-3.917 3.413c-1.438 3.463-1.012 5.01-1.012 5.01s-1.731-3.311.435-6.662c2.154-3.346 2.614-2.078 5.498-5.978 2.891-3.894 5.37-5.47 5.806-9.838.432-4.353-.093-8.107-2.048-8.562-4.323-1.016-6.235 2.909-6.235 2.909s3.284-2.223 5.77-.636c2.477 1.584 1.42 7.226 1.42 7.226zm4.732-1.056s-.655 2.519-2.446 6.65c-1.21 2.783-2.737 5.917-1.229 9.136.846 1.802 1.808 2.132 3.108 5.269 1.306 3.147-.245 5.305-.245 5.305s2.288-2.328 1.673-4.892c-.614-2.57-2.904-5.299-3.47-6.78-.899-2.371.395-5.983 1.141-7.955 1.468-3.887 1.468-6.733 1.468-6.733z"/><path fill="#fff" d="M53.346.793s1.08-.793 2.504-.793c1.43 0 3.273.926 3.273.926s.132 1.319-.135 1.979c-.26.653-.26 1.156-.26 1.156l-1.586.263s.028-1.022-1.162-2.078c-1.186-1.055-2.634-1.453-2.634-1.453zm-3.654 1.315s1.545-.659 3.654.26c2.113.933 1.843 2.879 1.843 2.879s-.263.392-1.19 1.056c-.924.654-1.053.654-1.053.654s-.581-.603-1.541-.801c-.944-.189-2.763-.13-1.057-.525 1.066-.241 2.997.47 2.998-.117 0-.674-.46-1.757-1.25-2.276-.79-.539-2.404-1.13-2.404-1.13zm14.936 2.476s.904-.859 1.981-1.423c1.069-.55 3.53-.793 3.53-.793s-1.588.667-2.633 2.216c-1.006 1.488-1.294 2.373-1.294 2.373l-.662-.392-.922-1.981zm3.664 3.297s3.183-1.578 4.617-1.838c1.42-.27 1.685-.404 2.868 0 1.19.389 1.289 0-.784.785-2.084.79-3.407 2.998-3.407 2.998s-.79-.756-1.446-1.281c-.659-.527-1.848-.664-1.848-.664z"/><path fill-rule="evenodd" clip-rule="evenodd" fill="#fff" d="M73.014 11.152s.658.658 2.764.526c2.112-.137 2.344-.922 4.458-.265 2.107.656 3.027 2.247 3.027 2.247l-2.234.13s-1.212-.789-2.111-.92c-.895-.131-2.349.131-2.349.131s1.419.16 2.75 1.179c1.312 1.032 1.051 1.56 2.494 2.619 1.45 1.053 2.614.819 3.405 2.37.792 1.554 2.107 4.186 2.107 4.186s-1.607-.92-3.037-.791c-1.42.137-1.945.791-2.735.4-.79-.4-1.845-1.193-1.845-1.193l-.431-2.736s1.297 1.018 2.275 1.055c.411.021 1.061-.137 1.061-.137s-2.091-.591-2.389-1.695c-.25-.943-2.335-1.988-2.335-1.988s-1.716-2.874-2.379-3.398c-.648-.537-2.496-1.72-2.496-1.72zm14.175 18.245s-1.738-2.218-2.762-3.401c-1.027-1.189-1.164-1.326-1.164-1.326s-.649.396-1.316.137c-.653-.263-2.375-1.182-2.375-1.182s.403 1.343.403 2.109c0 .754-.133 1.418-.133 1.418s1.187-.529 2.104 0c.922.533 1.028-.394 2.087 0 1.058.397 3.156 2.245 3.156 2.245zm-7.347-.526s.658-.527 1.187-.267c.524.267 1.053.656 1.053.656s-.632 1.689.658 3.142c1.294 1.449 3.664 3.298 3.93 6.168.258 2.866-.535 4.85-.535 4.85s.833-2.524-1.972-5.762c-1.692-1.958-.899-.91-3.271-1.436-2.007-.451-2.104-2.248-2.104-2.248s.209-.536.397-1.173c.134-.495 3.284 3.552.257-1.436-.145-.225.041-.591.081-.922.125-.787.319-1.572.319-1.572zm-5.384 13.785s4.141-2.975 6.246-.5c2.105 2.479.453 3.24.224 6.475-.221 3.16 3.235 4.651 3.235 4.651s-1.458-1.099.229-5.151c.851-2.04.687-8.931-4.292-9.3-1.13-.081-1.947-1.819-1.947-1.819s-.796 1.953-1.583 3.004c-.792 1.057-2.112 2.64-2.112 2.64zm-20.979 1.682s2.639-.656 3.003-1.311c.367-.661.263-1.558 1.712-1.164 1.446.396 1.291 2.609 3.661 3.137 2.376.531 6.697-.392 6.697-.392s-4.587 2.767-6.924 2.494c-2.347-.257-1.972-1.843-3.563-2.645-1.575-.786-4.586-.119-4.586-.119z"/><path fill="#fff" d="M72.832 43.855s-1.923.877-2.912 2.205c-1.904 2.529-.455.872-2.146 3.086-1.397 1.839-2.222 2.492-5.649 3.154-1.192.229-5.877-.662-5.877-.662s2.215 2.089 7.053 1.723c4.497-.345 6.308-1.854 6.308-1.854s-1.522 4.174-9.833 3.532c-2.165-.164-3.965.943-3.965.943s0 1.646-1.407 3.378c-1.429 1.769-2.899 1.984-2.899 1.984s1.83.801 5.083-2.56c1.285-1.339.366-1.577 1.6-1.982.823-.278 5.352.02 9.699-1.319 3.19-.998 4.615-5.106 4.886-6.758.062-.399-5.168 2.786-1.533-2.45.498-.879 1.592-2.42 1.592-2.42zm2.604.22c1.04-.603 1.92-1.241 3.083-.327 1.675 1.32-.26 2.547.134 5.05.396 2.502 1.353 3.757 1.353 3.757s-2.083 1.363-3.095 2.371c-1.208 1.221-1.208 2.76-1.208 2.76s-.988-1.762 1-3.91c1.071-1.139 1.802-3.156.977-5.229-1.423-3.645-2.927-2.68-4.9-1.389-1.592 1.055.387-1.762 2.656-3.083zm-37.958-4.192s-2.739-2.188-4.457-2.85c-1.709-.655-3.345-2.638-4.106-3.821-.777-1.192-1.824-3.128-3.925-4.545-1.952-1.323-2.089-.784-7.338.146-5.242.916-5.646 1.086-7.906 1.086-3.625 0-5.132 1.826-3.483 2.104 3.137.525 3.675 2.817 4.504 1.886 1.802-2.022 3.929-2.254 6.674-2.386 2.737-.137 4.195-.684 5.09.103.894.797.105.923 1.421 2.115 1.316 1.18.791.158 1.581 1.979.795 1.812 1.314 6.136 5.379 8.375 4.062 2.248 3.66 1.8 3.66 1.8s.137-2.16 1.059-3.479c.923-1.323 1.847-2.513 1.847-2.513zm-30.573-6.138s-1.72-1.081-3.803.495c-2.082 1.592-3.187 4.229-2.667 4.421.849.304 4.159-.191 4.381-.842.558-1.668.629-2.598 1.159-3.131.53-.522.93-.943.93-.943zm-6.569 5.203c-.281-.117-.34-.391-.336-.575.03-.953 1.107-2.965 2.909-4.371.931-.711 1.818-.924 2.524-.924.974 0 1.603.393 1.629.407l-.158.26.158-.26.317.202-.262.27-.928.943c-.421.396-.535 1.316-1.094 3.015-.47.874-2.477 1.067-3.857 1.143-.365-.009-.657-.027-.902-.11zm.904-.501c.614 0 1.448-.107 2.127-.27.692-.129 1.17-.418 1.157-.457.562-1.643.596-2.567 1.235-3.25.251-.244.46-.455.623-.623-.227-.081-.547-.16-.948-.16-.583 0-1.329.167-2.146.795-1.673 1.24-2.707 3.332-2.674 3.891v.027c.131.024.363.047.626.047zm19.148 40.073c1.003 1.127 1.441 1.455 2.601 2.087 1.159.642 1.738.457 1.738.457s.132-1.34.083-2.152c-.076-1.293-.746-2.173-.746-2.173s-1.387-.273-2.163-.657c-.602-.296-.736-1.427-.736-1.427s-2.474 1.956-.777 3.865zm2.453 2.352c-1.17-.636-1.677-1.018-2.678-2.151l.225-.201.229-.197c.993 1.111 1.367 1.375 2.519 2.02.648.353 1.085.432 1.31.441.027-.335.076-.939.076-1.465l-.011-.393c-.064-.953-.475-1.674-.631-1.915-.355-.069-1.417-.313-2.106-.663-.456-.253-.684-.718-.792-1.095-.375.401-.899 1.093-.89 1.823.004.389.137.793.525 1.246l-.229.197-.225.201c-.481-.534-.68-1.113-.672-1.645.02-1.549 1.471-2.633 1.471-2.66l.429-.331.072.536c.003 0 .194 1.056.571 1.187.714.355 2.081.632 2.086.632l.109.025.076.087c.012.027.717.951.808 2.341l.008.426c0 .81-.099 1.768-.099 1.772l-.019.208-.202.053c-.02.013-.126.035-.31.035-.319.001-.878-.079-1.65-.514zm22.904-4.512s.117 2.985 1.698 4.974c1.582 1.977 3.926 3.186 4.983 4.481 1.053 1.285 1.844 3.401 1.844 3.401s-1.608-.415-2.139 1.8c-.525 2.214.78 3.833.148 4.224-.626.395-2.866.793-5.732 2.606-2.878 1.811-9.87 6.005-11.027 7.191-1.162 1.188-2.262 2.461-2.262 2.461s-.713-.82-2.033-.295c-1.312.534-1.439 1.241-1.439 1.241l-2.987-.355s1.419-1.589 1.828-2.768c.387-1.194 1.952-.435 3.668-1.367 1.714-.913 3.772-2.466 6.781-4.946 3.005-2.481 5.884-4.317 5.356-5.86-.53-1.561-3.966-2.726-5.649-6.92-1.689-4.197-.632-8.121.647-8.785 1.297-.658 6.315-1.083 6.315-1.083zm-20.421 33.537c-.521.667-.647 1.676-.927 2.937-.276 1.266-.186 2.676-.186 2.676s2.062-.338 3.35-1.787c1.295-1.451 1.268-2.631 1.165-3.158-.1-.533-.629-.927-.629-.927s-2.248-.4-2.773.259zm-1.414 5.633c0-.009-.019-.255-.019-.626 0-.547.033-1.349.207-2.139.28-1.247.389-2.28.988-3.06.396-.458 1.036-.479 1.638-.492.729 0 1.413.12 1.547.183.015.016.602.414.753 1.113.027.133.054.311.046.527.008.688-.243 1.726-1.285 2.883-1.375 1.556-3.495 1.875-3.521 1.885l-.329.048-.025-.322zm.78-2.628c-.156.711-.194 1.49-.194 2.002l.008.224c.61-.164 1.947-.602 2.835-1.612.937-1.062 1.119-1.929 1.124-2.479-.005-.174-.016-.309-.035-.416-.058-.338-.412-.655-.412-.688-.113-.021-.698-.117-1.291-.117-.547-.014-1.081.123-1.163.269-.451.558-.589 1.532-.872 2.817zm47.033 26.688s2.344-.658 3.394-1.846c1.058-1.184 1.452-1.556 1.452-2.207 0-.664-.126-3.039-.126-3.039s-.402.529-1.581.797c-1.189.256-1.296.522-1.952 1.578-.66 1.063-1.187 4.717-1.187 4.717zm-.298-.045c.006-.021.495-3.633 1.222-4.838.615-1.021.909-1.465 2.145-1.717 1.116-.242 1.399-.677 1.399-.677l.501-.675.047.839s.136 2.371.136 3.06c-.019.82-.502 1.239-1.527 2.409-1.166 1.291-3.522 1.92-3.539 1.931l-.085-.287.085.287-.455.123.071-.455zm3.495-5.957c-1.144.281-1.045.358-1.759 1.439-.459.718-.896 3.083-1.071 4.114.728-.252 2.124-.812 2.803-1.6 1.08-1.206 1.383-1.528 1.377-2.005 0-.438-.06-1.679-.106-2.43-.27.17-.675.357-1.244.482zm5.998-41.627c1.767-6.158.843-5.229-1.058-9.287-1.903-4.07-2.148-5.239-4.668-7.664 0 0-.719-1.467-5.053-5.043-2.716-2.232-4.077-4.12-5.354-7.08-.929-2.159-.792-4.552-.792-4.552s-4.39.26-5.19.878c-1.214.938-4.298 4.498-7.754 4.31-5.907-.317-6.55-3.35-6.55-3.35s7.682 1.919 9.27-3.117c.414-1.31-1.755-.794-4.392.8-1.074.649.157-3.039 4.228-3.195 5.511-.219 2.956-1.039.323-1.676-2.754-.674-6.152.725-6.152.725s1.022-1.441 3.918-3.117c4.181-2.42 7.474.292 9.185.16 4.23-.32 5.983-3.445 5.983-3.445s-2.634 1.789-5.349 1.846c-4.396.083-3.268-3.018-6.626-3.437-2.556-.319-4.391 2.48-4.391 2.48s-.962-4.237 2.948-5.352c2.733-.78 1.386-3.117 3.923-3.117 5.189 0 3.2 3.099 6.208 3.563 2.991.459 4.851-.796 6.695-2.48 2.369-2.499 7.355-14.728 3.894-22.498-1.533-4.203-3.171-6.544-4.725-7.898v-.013c-1.58-1.372-3.084-1.724-4.309-1.968-.808-.165-1.441-2.078-1.441-2.078s-.322-2.24-1.086-4.018c-1.041-2.414-2.078-1.856-2.078-1.856s-.145.632.042 2.113c.188 1.482-.042 2.748-.042 2.748s-.902 1.813-1.553 1.171c-.654-.651-.638-1.438-.638-1.438s-.913.213-3.33 2.444c-2.429 2.227-3.306 2.471-4.055 5.033-1.236 2.227-2.658 4.293-5.385 6.462-2.723 2.16-4.747 2.806-5.438 3.462-1.138.721-.301.954 0 1.656.298.701.181 1.666 2.357 1.108 1.554.049 1.8.602 2.311.944 1.802 1.199-1.003 3.293 0 3.455 2.299.408 1.802-2.77 2.605-3.455.793-.699 1.259-.753 2.564-1.105 1.292-.355 1.948-.498 2.702-.15.747.36 4.22 1.941 6.781.757 6.103-1.148 7.981-9.646 7.981-9.646s-.049.043-.04.19l.04.106c.077 1.467-.052 8.043-7.751 12.42-2.41 1.81-3.065 2.33-4.214 2.666-1.157.35-2.554-.351-5.11.995-2.558 1.36-2.912 2.204-4.211 3.069-1.299.849-3.151.734-3.903 1.691-.752.954-1.954 2.212-2.952 4.211-1.009 2.004-2.567 3.402-2.715 5.012-.146 1.605-.146 3.448-.146 3.448s1.304-.055 2.505 0c1.206.055 2.75.104 2.75.104s.214-.778 2.062-2.753c1.399-1.504 2.877-2.617 3.196-2.152.353.502-.798.55-1.993 2.152-1.662 2.215-1.507 4.506-1.507 4.506s-4.767-.249-8.269-.096c-3.501.147-3.002-.24-4.299.055-1.308.305-7.117 1.698-8.321 1.794-1.197.106-2.854-.38-4.098.769-1.245 1.158-.708 3.508-.755 4.293-.05.797.347 8.358.047 9.17-.302.802-.906 2.396-.556 3.351.351.951.802 1.102 1.304 2.562.506 1.452 2.746-.9 3.552-2.113.274-.398.905-1.004 0-1.556-.062-.178-.101.096-.691-1.523-.913-2.448-.869-2.01-.621-4.471.252-2.45-.128-3.599.228-4.061.337-.451-.014-.5.544-.905.547-.393 1.51-1.509 2.308-1.605.797-.101 4.197.561 7.058.397 2.855-.14 6.684-.074 9.8-.394 5.519-.55 6.347-2.203 6.949-1.754.336.247 1.073 2.295-2.479 3.197-3.483.877-5.605.305-5.605.305s2.3 3.852 4.001 7.014c1.711 3.151 2.25 6.365 4.158 8.921.925 2.344-.166 5.034 5.125 8.255 1.909 1.157 3.495 5.693 3.495 5.693.54.373.068 1.045 1.503.76 1.438-.284 2.311.285 2.311.285s-.292-.747.577-4.056c.858-3.319 3.238-7.533 3.238-7.533s-1.771 4.641-1.63 10.438c.146 5.8.579 7.987 2.313 11.46 1.733 3.456 1.938 2.953 5.87 6.581 3.919 3.642 4.495 4.225 4.791 7.536.286 3.316.427 3.508 0 7.178-.421 3.494-.085 5.007-1.431 7.889-.419.91-1.159 1.996-.153 2.286 1.018.288 1.081-.61 2.236-1.619 1.148-1.009 2.667-.288 2.667-3.344 0-3.054-.887-2.116-.307-7.041.58-4.935 2.281-6.817 1.854-8.4-.44-1.586-1.999-1.222-2.576-3.855-.582-2.62-.735-7.26-2.034-8.704-1.295-1.445 3.037 1.23 5.376-6.904zm-35.507-68.079c-.38.454-1.646.755-1.646.755-.009-.322.105-1.077.105-1.077l-.664.082s-1.017-.007-1.017 0c-.167-1.387 1.462-1.935 2.665-1.572 1.204.358.944 1.354.557 1.812zm14.688-10.022c-.948.976-3.786 1.182-4.363 1.182-.582 0-1.059-.331-1.556-.602-.495-.271.023-.655.145-.694.123-.044.53-.424.591-.468.062-.04.292-.443.602-.561.312-.11.643.014.924.179.276.164.624.239.624.239h.049l.112.26c-.041.05-.123.028-.364.02-.235-.011-.506-.29-.732-.208-.23.084-.126.488-.126.479.32.495.82.465.812.454 1.531-.612 2.164-1.616 2.164-1.616-.011-.094-2.666-.301-3.15-.363-.487-.061-.325-.484-.053-.484.269 0 3.698-.25 3.698-.25s.354.072.705.516c.356.446.859.942-.082 1.917z"/></svg>