<svg xmlns="http://www.w3.org/2000/svg" width="186.136" height="245" viewBox="0 0 186.136 245"><path fill="#fff" d="M73.706 48.506c-.584-.817-.427-.592.364-1.629.779-1.055.37-.564 1.596-.284 1.233.255 1.33.779.89 1.476-.439.724-1.594.786-2.85.437zm55.175-26.067s7.409 7.803 6.574 23.18c-.845 15.376-8.805 27.521-8.805 27.521s11.188-10.611 10.622-28.351c-.553-17.742-8.391-22.35-8.391-22.35z"/><path fill-rule="evenodd" clip-rule="evenodd" fill="#fff" d="M176.166 136.154s.846-7.75-3.697-9.256c-4.555-1.51-8.128-2.064-9.652 1.766-1.5 3.855-2.796 10.82-4.362 13.85-1.563 3.031-4.622 5.568-6.642 5.568-2.016 0-6.35-.295-6.35-.295l-1.147-2.707s4.975 1.98 7.497.719c2.522-1.266 4.704-2.445 5.972-7.748 1.257-5.293.249-13.975 2.271-19.027 2.005-5.033 6.556-10.402 11.918-9.896 5.336.514 7.909.818 10.617 5.891 2.348 4.391 3.795 10.934-.85 21.996-3.013 7.152-5.618 9.76-7.842 17.684-2.405 8.611 3.934 9.635 6.69 16.457 2.789 6.803.52 6.523 0 11.324-.497 4.789 1.151 11.387 1.151 11.387l-3.425-3.25s1.617-8.93.846-12.469c-.761-3.518-7.213-9.646-7.213-9.646s4.863 7.086 4.644 12.869c-.277 7.568-3.358 14.346-3.358 14.346s3.018-8.066-.135-14.484c-2.008-4.076-2.718-2.223-4.999-8.221-1.635-4.311-1.436-9.309-1.436-9.309s-2.083 4.799-1.058 10.398c1.004 5.604 1.81 5.041.802 8.635-1.099 3.936-4.349 7.881-4.349 7.881s2.756-4.381 1.107-9.807c-1.762-5.816-2.853-4.51-2.713-10.158.186-7.516 5.701-11.539 5.701-11.539s-4.31-.084-6.854 5.973c-2.519 6.059-1.77 8.768-1.77 8.768s-3.032-5.795.76-11.658c3.768-5.854 4.573-3.635 9.621-10.465 5.055-6.809 9.396-9.572 10.158-17.213.759-7.617-.161-14.188-3.58-14.982-7.568-1.781-10.915 5.092-10.915 5.092s5.748-3.891 10.096-1.111c4.346 2.766 2.496 12.637 2.496 12.637zm8.277-1.847s-1.143 4.41-4.275 11.639c-2.121 4.871-4.794 10.354-2.151 15.992 1.479 3.15 3.163 3.727 5.438 9.217 2.288 5.508-.43 9.283-.43 9.283s4.008-4.072 2.928-8.562c-1.072-4.498-5.084-9.27-6.069-11.863-1.574-4.146.688-10.473 1.994-13.922 2.565-6.806 2.565-11.784 2.565-11.784z"/><path fill="#fff" d="M93.357 1.387s1.891-1.387 4.382-1.387c2.498 0 5.728 1.617 5.728 1.617s.231 2.312-.234 3.469c-.459 1.14-.459 2.02-.459 2.02l-2.774.458s.05-1.787-2.032-3.635c-2.077-1.845-4.611-2.542-4.611-2.542zm-6.399 2.302s2.705-1.152 6.398.453c3.696 1.635 3.224 5.037 3.224 5.037s-.458.688-2.083 1.85c-1.616 1.146-1.844 1.146-1.844 1.146s-1.012-1.059-2.695-1.4c-1.652-.334-4.833-.232-1.85-.92 1.866-.422 5.245.82 5.248-.205 0-1.183-.806-3.078-2.191-3.988-1.379-.936-4.207-1.973-4.207-1.973zm26.144 4.335s1.582-1.507 3.466-2.491c1.872-.962 6.179-1.391 6.179-1.391s-2.779 1.17-4.607 3.882c-1.76 2.602-2.265 4.151-2.265 4.151l-1.159-.688-1.614-3.463zm6.412 5.771s5.569-2.766 8.079-3.221c2.482-.469 2.948-.707 5.017 0 2.087.684 2.257 0-1.369 1.375-3.647 1.381-5.962 5.244-5.962 5.244s-1.382-1.319-2.532-2.24c-1.153-.922-3.233-1.158-3.233-1.158z"/><path fill-rule="evenodd" clip-rule="evenodd" fill="#fff" d="M127.774 19.515s1.152 1.153 4.836.924c3.7-.241 4.104-1.616 7.803-.464 3.689 1.148 5.302 3.934 5.302 3.934l-3.915.223s-2.118-1.379-3.691-1.604c-1.568-.231-4.112.226-4.112.226s2.487.279 4.812 2.066c2.297 1.801 1.839 2.729 4.365 4.58 2.541 1.84 4.577 1.432 5.96 4.146 1.388 2.72 3.69 7.328 3.69 7.328s-2.817-1.609-5.317-1.384c-2.485.239-3.404 1.384-4.788.696-1.382-.696-3.226-2.082-3.226-2.082l-.757-4.789s2.271 1.775 3.982 1.845c.722.032 1.855-.241 1.855-.241s-3.659-1.032-4.179-2.964c-.439-1.651-4.085-3.481-4.085-3.481s-3.005-5.033-4.162-5.946c-1.14-.944-4.373-3.013-4.373-3.013zm24.809 31.932s-3.042-3.883-4.832-5.953c-1.801-2.08-2.036-2.322-2.036-2.322s-1.141.697-2.307.242c-1.144-.462-4.157-2.07-4.157-2.07s.705 2.349.705 3.693c0 1.319-.231 2.48-.231 2.48s2.075-.925 3.684 0c1.613.933 1.799-.691 3.65 0 1.85.692 5.524 3.93 5.524 3.93zm-12.859-.926s1.151-.92 2.075-.461c.919.461 1.843 1.145 1.843 1.145s-1.107 2.955 1.152 5.498c2.264 2.536 6.413 5.771 6.879 10.794.451 5.018-.938 8.487-.938 8.487s1.459-4.417-3.449-10.084c-2.961-3.426-1.571-1.59-5.723-2.51-3.513-.787-3.684-3.934-3.684-3.934s.369-.939.697-2.055c.234-.867 5.748 6.218.448-2.51-.249-.398.073-1.038.142-1.615.217-1.38.558-2.755.558-2.755zm-9.424 24.127s7.248-5.205 10.934-.873c3.682 4.336.792 5.668.392 11.328-.385 5.53 5.66 8.143 5.66 8.143s-2.552-1.925.397-9.018c1.489-3.566 1.204-15.626-7.509-16.274-1.976-.14-3.406-3.186-3.406-3.186s-1.394 3.419-2.772 5.259c-1.386 1.854-3.696 4.621-3.696 4.621zm-36.715 2.942s4.619-1.146 5.262-2.293c.643-1.158.456-2.725 2.991-2.035 2.534.69 2.262 4.564 6.412 5.49 4.156.928 11.717-.691 11.717-.691s-8.026 4.844-12.119 4.367c-4.104-.447-3.45-3.225-6.233-4.629-2.756-1.376-8.03-.209-8.03-.209z"/><path fill="#fff" d="M127.458 76.744s-3.368 1.537-5.098 3.861c-3.335 4.428-.798 1.523-3.753 5.397-2.448 3.221-3.892 4.365-9.889 5.525-2.089.399-10.285-1.16-10.285-1.16s3.874 3.652 12.342 3.013c7.868-.604 11.04-3.24 11.04-3.24s-2.664 7.3-17.208 6.176c-3.792-.285-6.941 1.652-6.941 1.652s0 2.881-2.46 5.914c-2.501 3.094-5.074 3.473-5.074 3.473s3.201 1.4 8.893-4.482c2.251-2.34.641-2.756 2.798-3.469 1.442-.482 9.369.038 16.978-2.305 5.581-1.747 8.076-8.938 8.546-11.827.112-.7-9.04 4.875-2.684-4.292.879-1.537 2.795-4.236 2.795-4.236zm4.555.386c1.818-1.056 3.361-2.171 5.398-.569 2.928 2.312-.456 4.455.231 8.836.692 4.379 2.366 6.576 2.366 6.576s-3.644 2.382-5.416 4.15c-2.11 2.13-2.11 4.828-2.11 4.828s-1.734-3.084 1.748-6.844c1.875-1.993 3.151-5.525 1.709-9.152-2.491-6.379-5.124-4.692-8.575-2.432-2.784 1.852.677-3.08 4.649-5.393zm-66.424-7.335s-4.797-3.83-7.799-4.988c-2.993-1.146-5.859-4.614-7.189-6.686-1.359-2.086-3.194-5.475-6.869-7.955-3.416-2.312-3.654-1.369-12.839.256-9.175 1.602-9.881 1.899-13.837 1.899-6.347 0-8.981 3.198-6.098 3.684 5.489.921 6.431 4.93 7.881 3.298 3.158-3.538 6.877-3.943 11.68-4.173 4.789-.237 7.344-1.195 8.908.177 1.562 1.396.185 1.619 2.489 3.703 2.303 2.063 1.382.277 2.766 3.465 1.39 3.168 2.299 10.736 9.411 14.655 7.11 3.937 6.407 3.152 6.407 3.152s.239-3.78 1.851-6.09c1.618-2.311 3.238-4.397 3.238-4.397zm-53.505-10.74s-3.01-1.894-6.655.867c-3.646 2.784-5.578 7.398-4.666 7.734 1.483.533 7.278-.336 7.668-1.472.975-2.921 1.099-4.544 2.027-5.479.927-.916 1.626-1.65 1.626-1.65zm-11.497 9.101c-.49-.202-.594-.683-.587-1.007.056-1.665 1.939-5.187 5.092-7.646 1.628-1.243 3.183-1.617 4.416-1.617 1.706 0 2.805.688 2.851.711l-.274.457.274-.457.557.354-.455.472s-.714.733-1.626 1.65c-.736.693-.936 2.304-1.913 5.278-.822 1.527-4.334 1.871-6.751 1.997-.643-.014-1.155-.043-1.584-.192zm1.583-.875c1.074 0 2.531-.186 3.724-.471 1.212-.227 2.044-.731 2.025-.801.984-2.874 1.041-4.49 2.161-5.684.435-.428.803-.8 1.088-1.096-.393-.143-.956-.279-1.66-.279-1.021 0-2.323.295-3.756 1.393-2.925 2.17-4.736 5.832-4.678 6.806v.048c.227.045.634.084 1.096.084zm33.511 70.127c1.752 1.971 2.52 2.545 4.548 3.652 2.033 1.121 3.045.801 3.045.801s.231-2.344.144-3.77c-.132-2.26-1.305-3.799-1.305-3.799s-2.427-.48-3.784-1.152c-1.055-.518-1.29-2.492-1.29-2.492s-4.329 3.42-1.358 6.76zm4.292 4.117c-2.045-1.115-2.935-1.781-4.687-3.766l.395-.352.399-.348c1.74 1.947 2.394 2.412 4.407 3.539 1.135.615 1.898.754 2.293.768.049-.582.132-1.643.132-2.564l-.018-.682c-.111-1.67-.828-2.928-1.102-3.354-.623-.123-2.48-.549-3.689-1.158-.795-.447-1.194-1.258-1.385-1.918-.656.703-1.574 1.912-1.56 3.191.011.682.241 1.385.921 2.178l-.399.348-.395.352c-.845-.934-1.188-1.945-1.176-2.877.035-2.709 2.576-4.609 2.576-4.654l.746-.582.129.938c.006 0 .343 1.85 1 2.078 1.248.621 3.641 1.107 3.65 1.107l.192.043.13.152c.022.047 1.258 1.662 1.416 4.098.01.225.01.469.01.74 0 1.422-.168 3.098-.168 3.105l-.034.363-.352.096c-.036.02-.221.059-.546.059-.554.001-1.534-.142-2.885-.9zm40.082-7.896s.202 5.227 2.973 8.703c2.766 3.459 6.869 5.576 8.716 7.844 1.842 2.25 3.227 5.951 3.227 5.951s-2.813-.725-3.741 3.152c-.921 3.873 1.367 6.703.263 7.391-1.094.689-5.017 1.387-10.033 4.559-5.036 3.172-17.272 10.51-19.298 12.588-2.033 2.076-3.962 4.307-3.962 4.307s-1.244-1.436-3.553-.514c-2.299.934-2.521 2.17-2.521 2.17l-5.226-.625s2.482-2.779 3.196-4.844c.68-2.086 3.416-.76 6.422-2.393 2.998-1.598 6.6-4.314 11.867-8.652 5.258-4.342 10.294-7.557 9.374-10.258-.928-2.729-6.943-4.771-9.889-12.111-2.956-7.34-1.108-14.209 1.134-15.369 2.27-1.153 11.051-1.899 11.051-1.899zm-35.739 58.691c-.909 1.166-1.13 2.932-1.623 5.141-.48 2.213-.321 4.678-.321 4.678s3.607-.588 5.862-3.123c2.262-2.541 2.215-4.605 2.037-5.529-.175-.932-1.099-1.621-1.099-1.621s-3.935-.698-4.856.454zm-2.474 9.86c0-.02-.031-.451-.031-1.096 0-.959.057-2.363.362-3.746.49-2.182.679-3.99 1.73-5.354.693-.803 1.813-.836 2.864-.857 1.276 0 2.474.205 2.705.312.027.029 1.054.729 1.319 1.951.05.23.095.543.08.92.015 1.207-.427 3.021-2.247 5.049-2.408 2.723-6.122 3.279-6.164 3.301l-.577.08-.041-.56zm1.366-4.604c-.273 1.244-.339 2.609-.339 3.508l.012.389c1.07-.287 3.408-1.053 4.961-2.82 1.642-1.859 1.961-3.379 1.969-4.342-.008-.301-.029-.537-.061-.725-.1-.588-.722-1.148-.722-1.207-.199-.033-1.224-.203-2.26-.203-.96-.021-1.894.219-2.037.471-.785.974-1.03 2.683-1.523 4.929zm82.307 46.703s4.104-1.148 5.943-3.227c1.847-2.072 2.537-2.725 2.537-3.865 0-1.158-.22-5.314-.22-5.314s-.704.922-2.769 1.389c-2.081.453-2.266.916-3.414 2.768-1.153 1.853-2.077 8.249-2.077 8.249zm-.519-.078c.01-.035.864-6.354 2.136-8.465 1.077-1.787 1.596-2.564 3.753-3.002 1.956-.43 2.45-1.188 2.45-1.188l.875-1.18.085 1.469s.237 4.146.237 5.352c-.032 1.436-.879 2.17-2.672 4.215-2.043 2.264-6.167 3.365-6.196 3.381l-.148-.504.148.504-.792.217.124-.799zm6.115-10.422c-1.998.49-1.827.625-3.076 2.52-.804 1.252-1.571 5.393-1.874 7.199 1.272-.441 3.714-1.426 4.904-2.801 1.891-2.111 2.42-2.672 2.405-3.51 0-.768-.101-2.938-.182-4.25-.471.295-1.182.624-2.177.842zm10.497-72.847c3.091-10.777 1.478-9.15-1.849-16.252-3.334-7.121-3.759-9.17-8.173-13.41 0 0-1.256-2.57-8.84-8.83-4.755-3.902-7.135-7.209-9.374-12.391-1.622-3.777-1.385-7.965-1.385-7.965s-7.683.456-9.082 1.539c-2.125 1.639-7.522 7.871-13.566 7.541-10.341-.557-11.467-5.863-11.467-5.863s13.443 3.355 16.223-5.453c.727-2.291-3.073-1.391-7.688 1.396-1.875 1.139.28-5.312 7.401-5.59 9.646-.381 5.173-1.818.565-2.931-4.818-1.181-10.768 1.271-10.768 1.271s1.791-2.525 6.858-5.455c7.315-4.238 13.076.506 16.07.276 7.406-.563 10.47-6.03 10.47-6.03s-4.605 3.133-9.356 3.23c-7.694.146-5.716-5.279-11.595-6.014-4.476-.559-7.685 4.34-7.685 4.34s-1.682-7.412 5.162-9.365c4.782-1.367 2.419-5.454 6.861-5.454 9.082 0 5.604 5.426 10.866 6.238 5.234.801 8.488-1.394 11.714-4.343 4.15-4.373 12.874-25.774 6.815-39.371-2.685-7.355-5.549-11.451-8.269-13.826v-.02c-2.764-2.396-5.396-3.017-7.539-3.441-1.415-.288-2.524-3.637-2.524-3.637s-.561-3.921-1.899-7.03c-1.82-4.223-3.635-3.25-3.635-3.25s-.256 1.107.074 3.699c.327 2.594-.074 4.807-.074 4.807s-1.581 3.177-2.719 2.05c-1.148-1.14-1.116-2.517-1.116-2.517s-1.598.37-5.826 4.279c-4.253 3.896-5.785 4.32-7.097 8.806-2.164 3.896-4.651 7.514-9.423 11.31-4.766 3.779-8.312 4.908-9.516 6.056-1.994 1.262-.529 1.672 0 2.899.519 1.229.312 2.917 4.121 1.943 2.723.084 3.153 1.052 4.045 1.652 3.155 2.097-1.753 5.76 0 6.046 4.022.713 3.155-4.845 4.562-6.046 1.387-1.226 2.203-1.32 4.484-1.933 2.265-.622 3.412-.876 4.732-.267 1.305.631 7.384 3.4 11.868 1.324 10.674-2.012 13.967-16.879 13.967-16.879s-.088.074-.07.334l.07.184c.134 2.57-.091 14.078-13.565 21.738-4.218 3.164-5.364 4.074-7.376 4.666-2.025.607-4.468-.619-8.94 1.737-4.478 2.38-5.096 3.86-7.369 5.371-2.273 1.485-5.518 1.288-6.836 2.964-1.312 1.67-3.415 3.869-5.163 7.367-1.764 3.506-4.493 5.956-4.749 8.769-.259 2.813-.259 6.039-.259 6.039s2.281-.096 4.385 0c2.112.094 4.814.179 4.814.179s.37-1.361 3.608-4.814c2.45-2.636 5.038-4.586 5.592-3.771.622.878-1.393.965-3.485 3.771-2.907 3.873-2.64 7.881-2.64 7.881s-8.341-.434-14.469-.166c-6.127.258-5.252-.422-7.519.096-2.293.535-12.458 2.971-14.568 3.141-2.091.186-4.992-.665-7.167 1.342-2.18 2.027-1.237 6.142-1.322 7.516-.088 1.391.607 14.623.085 16.045-.529 1.4-1.587 4.193-.975 5.863.613 1.662 1.404 1.926 2.279 4.484.885 2.537 4.807-1.578 6.215-3.699.482-.697 1.584-1.76 0-2.721-.107-.311-.171.164-1.206-2.67-1.599-4.285-1.522-3.514-1.09-7.822.443-4.291-.223-6.301.401-7.105.587-.791-.024-.875.949-1.588.958-.684 2.643-2.635 4.039-2.806 1.396-.176 7.343.98 12.352.696 4.996-.247 11.694-.132 17.148-.688 9.657-.962 11.106-3.855 12.163-3.072.585.434 1.876 4.018-4.34 5.595-6.094 1.536-9.81.538-9.81.538s4.026 6.736 7.003 12.273c2.991 5.512 3.937 11.137 7.273 15.605 1.624 4.105-.287 8.811 8.972 14.447 3.345 2.029 6.118 9.963 6.118 9.963.941.656.119 1.832 2.627 1.33 2.521-.498 4.044.502 4.044.502s-.512-1.309 1.012-7.102c1.502-5.805 5.667-13.182 5.667-13.182s-3.098 8.123-2.853 18.268c.255 10.15 1.016 13.977 4.05 20.055 3.034 6.051 3.392 5.168 10.271 11.514 6.861 6.375 7.868 7.396 8.386 13.191.501 5.803.749 6.135 0 12.561-.734 6.111-.15 8.762-2.502 13.807-.739 1.592-2.033 3.49-.271 4.002 1.779.504 1.894-1.072 3.912-2.836 2.011-1.766 4.668-.508 4.668-5.852s-1.551-3.699-.536-12.322c1.017-8.633 3.994-11.93 3.245-14.701-.771-2.777-3.5-2.137-4.509-6.746-1.018-4.586-1.286-12.707-3.561-15.232-2.268-2.528 5.315 2.154 9.409-12.078zm-62.14-119.141c-.665.799-2.879 1.324-2.879 1.324-.017-.562.183-1.885.183-1.885l-1.159.142s-1.78-.015-1.78 0c-.292-2.428 2.558-3.388 4.663-2.752 2.105.632 1.65 2.374.972 3.171zm25.704-17.537c-1.656 1.708-6.624 2.07-7.633 2.07-1.02 0-1.851-.583-2.724-1.053-.868-.472.039-1.145.251-1.216.217-.075.929-.742 1.034-.819.112-.068.515-.774 1.054-.98.545-.193 1.123.023 1.617.314.483.286 1.092.414 1.092.414h.084s.199.4.199.455c-.073.09-.217.053-.639.035-.412-.018-.885-.508-1.282-.363-.402.146-.217.854-.217.836.561.871 1.436.815 1.414.796 2.682-1.067 3.79-2.83 3.79-2.83-.018-.161-4.665-.524-5.514-.632-.853-.107-.565-.852-.093-.852l6.474-.438s.619.127 1.233.906c.628.783 1.506 1.654-.14 3.357z"/></svg>