<?xml version="1.0" encoding="utf-8"?>
<!-- Generator: Adobe Illustrator 16.0.0, SVG Export Plug-In . SVG Version: 6.00 Build 0)  -->
<!DOCTYPE svg PUBLIC "-//W3C//DTD SVG 1.1//EN" "http://www.w3.org/Graphics/SVG/1.1/DTD/svg11.dtd">
<svg version="1.1" id="Layer_1" xmlns="http://www.w3.org/2000/svg" xmlns:xlink="http://www.w3.org/1999/xlink" x="0px" y="0px"
	 width="91.008px" height="91.009px" viewBox="0 0 91.008 91.009" enable-background="new 0 0 91.008 91.009" xml:space="preserve">
<path fill-rule="evenodd" clip-rule="evenodd" fill="#FFFFFF" d="M45.504,0C20.373,0,0,20.374,0,45.504
	c0,25.131,20.373,45.504,45.504,45.504c25.131,0,45.504-20.373,45.504-45.504C91.008,20.374,70.635,0,45.504,0z M53.151,56.387
	l-10.32,10.32c-4.762,4.762-12.507,4.762-17.269,0c-4.761-4.761-4.761-12.507,0-17.268c1.426-1.425,3.736-1.425,5.162,0
	c1.425,1.425,1.425,3.736,0,5.162c-1.916,1.915-1.916,5.03,0,6.945c1.915,1.915,5.031,1.916,6.946,0l10.319-10.321
	c1.916-1.915,1.916-5.031,0-6.946c-1.425-1.425-1.425-3.735,0-5.161c1.426-1.425,3.736-1.425,5.162,0
	C57.913,43.879,57.913,51.626,53.151,56.387z M64.848,40.56c-1.424,1.425-3.736,1.425-5.16,0s-1.424-3.736,0-5.162
	c1.916-1.915,1.916-5.031,0-6.946c-1.914-1.915-5.031-1.915-6.945,0l-10.321,10.32c-1.915,1.915-1.915,5.031,0,6.946
	c1.425,1.425,1.425,3.736,0,5.162c-1.425,1.424-3.735,1.424-5.161,0c-4.761-4.761-4.761-12.508,0-17.269l10.32-10.32
	c4.762-4.761,12.508-4.761,17.268,0C69.612,28.052,69.612,35.799,64.848,40.56z"/>
</svg>
