<?xml version="1.0" encoding="utf-8"?>
<!-- Generator: Adobe Illustrator 16.0.0, SVG Export Plug-In . SVG Version: 6.00 Build 0)  -->
<!DOCTYPE svg PUBLIC "-//W3C//DTD SVG 1.1//EN" "http://www.w3.org/Graphics/SVG/1.1/DTD/svg11.dtd">
<svg version="1.1" id="Layer_1" xmlns="http://www.w3.org/2000/svg" xmlns:xlink="http://www.w3.org/1999/xlink" x="0px" y="0px"
	 width="91.008px" height="91.008px" viewBox="0 0 91.008 91.008" enable-background="new 0 0 91.008 91.008" xml:space="preserve">
<path fill="#FFFFFF" d="M45.504,0C20.372,0,0,20.373,0,45.504s20.372,45.504,45.504,45.504c25.131,0,45.504-20.373,45.504-45.504
	S70.635,0,45.504,0z M56.929,20.701c0,0,2.458,3.067,2.458,4.425s-1.101,2.459-2.458,2.459c-1.357,0-2.458-1.101-2.458-2.459
	S56.929,20.701,56.929,20.701z M59.157,29.527v7.341c0,0.18-0.145,0.324-0.325,0.324h-3.901c-0.179,0-0.325-0.145-0.325-0.324
	v-7.341c0-0.18,0.146-0.325,0.325-0.325h3.901C59.013,29.202,59.157,29.348,59.157,29.527z M45.409,20.701
	c0,0,2.459,3.067,2.459,4.425s-1.102,2.459-2.459,2.459c-1.357,0-2.458-1.101-2.458-2.459S45.409,20.701,45.409,20.701z
	 M47.779,29.527v7.341c0,0.18-0.146,0.324-0.325,0.324h-3.901c-0.179,0-0.324-0.145-0.324-0.324v-7.341
	c0-0.18,0.146-0.325,0.324-0.325h3.901C47.634,29.202,47.779,29.348,47.779,29.527z M34.174,20.701c0,0,2.458,3.067,2.458,4.425
	s-1.1,2.459-2.458,2.459c-1.357,0-2.458-1.101-2.458-2.459S34.174,20.701,34.174,20.701z M36.402,29.527v7.341
	c0,0.18-0.145,0.324-0.325,0.324h-3.902c-0.18,0-0.324-0.145-0.324-0.324v-7.341c0-0.18,0.145-0.325,0.324-0.325h3.902
	C36.257,29.202,36.402,29.348,36.402,29.527z M72.811,61.089c0,1.74-1.41,3.15-3.15,3.15H21.348c-1.74,0-3.151-1.41-3.151-3.15
	v-7.213c0.499,0.18,0.993,0.269,1.481,0.269c0.973,0,1.971-0.356,2.971-1.062c0.817-0.577,1.591-1.347,2.341-2.096
	c0.691-0.689,1.345-1.341,1.961-1.777c0.51-0.358,0.958-0.541,1.331-0.541c0.375,0,0.821,0.183,1.331,0.541
	c0.619,0.437,1.274,1.09,1.966,1.783c0.747,0.745,1.52,1.515,2.336,2.09c1,0.706,2,1.062,2.971,1.062s1.971-0.356,2.97-1.062
	c0.821-0.578,1.591-1.347,2.344-2.1c0.691-0.688,1.344-1.339,1.958-1.773c0.51-0.358,0.958-0.541,1.333-0.541
	c0.373,0,0.82,0.183,1.331,0.541c0.618,0.438,1.304,1.12,1.966,1.782c0.745,0.745,1.517,1.515,2.336,2.091
	c0.999,0.706,1.999,1.062,2.971,1.062c0.972,0,1.971-0.356,2.972-1.062c0.817-0.578,1.589-1.347,2.334-2.09
	c0.662-0.663,1.347-1.344,1.966-1.783c0.51-0.358,0.958-0.541,1.331-0.541s0.822,0.183,1.331,0.541
	c0.618,0.437,1.273,1.09,1.967,1.783c0.746,0.745,1.518,1.515,2.334,2.09c1,0.706,2,1.062,2.971,1.062
	c0.498,0,1.001-0.095,1.508-0.279V61.089z M72.811,50.627c-0.06,0.045-0.119,0.091-0.177,0.131
	c-0.511,0.361-0.957,0.542-1.332,0.542c-0.374,0-0.821-0.182-1.33-0.542c-0.62-0.438-1.304-1.12-1.968-1.78
	c-0.746-0.747-1.519-1.516-2.335-2.092c-0.998-0.705-1.998-1.063-2.971-1.063s-1.971,0.358-2.972,1.063
	c-0.815,0.577-1.588,1.347-2.335,2.092c-0.661,0.66-1.346,1.343-1.966,1.78c-0.51,0.361-0.958,0.542-1.331,0.542
	s-0.821-0.182-1.331-0.542c-0.62-0.438-1.304-1.12-1.967-1.78c-0.747-0.746-1.519-1.516-2.336-2.092
	c-0.998-0.705-1.998-1.063-2.97-1.063c-0.973,0-1.972,0.358-2.973,1.063c-0.812,0.574-1.582,1.341-2.335,2.092
	c-0.661,0.66-1.344,1.342-1.966,1.78c-0.51,0.361-0.958,0.542-1.331,0.542c-0.374,0-0.821-0.182-1.331-0.542
	c-0.618-0.438-1.305-1.12-1.967-1.78c-0.747-0.747-1.52-1.516-2.335-2.092c-1-0.705-1.999-1.063-2.972-1.063
	s-1.972,0.358-2.971,1.063c-0.814,0.574-1.586,1.343-2.336,2.092c-0.662,0.661-1.346,1.343-1.967,1.78
	c-0.508,0.361-0.957,0.542-1.331,0.542c-0.373,0-0.821-0.182-1.331-0.542c-0.048-0.034-0.099-0.072-0.15-0.11v-8.286
	c0-1.741,1.411-3.151,3.151-3.151h48.312c1.74,0,3.15,1.41,3.15,3.151V50.627z"/>
</svg>
