<?xml version="1.0" encoding="utf-8"?>
<!-- Generator: Adobe Illustrator 16.0.0, SVG Export Plug-In . SVG Version: 6.00 Build 0)  -->
<!DOCTYPE svg PUBLIC "-//W3C//DTD SVG 1.1//EN" "http://www.w3.org/Graphics/SVG/1.1/DTD/svg11.dtd">
<svg version="1.1" id="Layer_1" xmlns="http://www.w3.org/2000/svg" xmlns:xlink="http://www.w3.org/1999/xlink" x="0px" y="0px"
	 width="91.008px" height="91.009px" viewBox="0 0 91.008 91.009" enable-background="new 0 0 91.008 91.009" xml:space="preserve">
<path fill-rule="evenodd" clip-rule="evenodd" fill="#FFFFFF" d="M41.336,24.801c-8.453,0-15.33,6.877-15.33,15.331
	s6.877,15.331,15.33,15.331s15.331-6.877,15.331-15.331S49.789,24.801,41.336,24.801z M43.414,32.42
	c1.4-1.259,3.411-1.409,4.955-0.505l0.697-0.626c0.18-0.163,0.459-0.148,0.622,0.033c0.163,0.182,0.147,0.46-0.033,0.623
	l-0.562,0.506c0.098,0.09,0.191,0.186,0.284,0.287c0.091,0.102,0.177,0.207,0.257,0.314l0.561-0.505
	c0.182-0.163,0.461-0.148,0.623,0.032c0.164,0.183,0.148,0.461-0.033,0.624l-0.695,0.626c0.732,1.631,0.371,3.615-1.029,4.874
	c-0.188,0.167-0.387,0.315-0.592,0.444l-4.697-1.248l-0.863-4.935C43.059,32.771,43.226,32.588,43.414,32.42z M34.222,38.969
	c-0.429-0.073-0.929-0.061-1.415,0.181c-1.674,0.83-3.064,0.572-4.367-0.809l0.617-0.556c1.049,1.108,2.038,1.287,3.379,0.621
	c0.744-0.369,1.484-0.357,2.085-0.229c0.528-1.201,1.376-2.331,2.475-3.264c-0.247-0.16-0.542-0.267-0.876-0.233
	c-0.344,0.035-0.646,0.122-0.939,0.206c-0.736,0.21-1.495,0.427-2.307-0.476c-0.009-0.009-0.018-0.021-0.026-0.031l0.62-0.557
	c0.473,0.545,0.803,0.46,1.484,0.266c0.312-0.089,0.668-0.191,1.084-0.234c0.68-0.07,1.23,0.197,1.643,0.528
	c0.207-0.146,0.418-0.288,0.639-0.421c0.652-0.396,1.219-0.686,1.697-0.899c-0.033-0.498,0.024-1.072,0.29-1.662
	c0.466-1.028,0.778-2.451-0.306-3.449l0.622-0.558c1.081,1.04,1.241,2.576,0.44,4.349c-0.154,0.341-0.211,0.681-0.22,0.993
	c0.823-0.281,1.228-0.27,1.228-0.27l0.867,5.627l-7.533,6.774C33.865,43.156,33.584,41.001,34.222,38.969z M53.146,42.571
	c-0.875-1.183-2.326-1.021-3.399-0.669c-0.614,0.203-1.192,0.199-1.684,0.112C47.8,42.469,47.453,43,46.99,43.608
	c-0.155,0.204-0.318,0.4-0.486,0.589c0.285,0.445,0.49,1.021,0.35,1.689c-0.086,0.411-0.225,0.752-0.348,1.054
	c-0.264,0.657-0.385,0.975,0.107,1.503l-0.62,0.557c-0.01-0.009-0.021-0.02-0.028-0.029c-0.812-0.902-0.516-1.633-0.229-2.343
	c0.115-0.282,0.232-0.575,0.305-0.915c0.068-0.329-0.006-0.634-0.137-0.896c-1.045,0.994-2.259,1.719-3.51,2.117
	c0.062,0.61-0.004,1.349-0.449,2.048c-0.806,1.263-0.732,2.266,0.258,3.426l-0.617,0.555c-1.235-1.441-1.346-2.852-0.34-4.427
	c0.292-0.46,0.357-0.957,0.33-1.389c-2.09,0.42-4.203-0.089-5.74-1.798l7.535-6.774l5.504,1.46c0,0-0.031,0.403-0.398,1.192
	c0.312,0.026,0.655,0.003,1.012-0.114c1.848-0.607,3.357-0.287,4.277,0.9L53.146,42.571z M45.504,0C20.373,0,0,20.373,0,45.504
	c0,25.131,20.373,45.505,45.504,45.505c25.132,0,45.504-20.374,45.504-45.505C91.008,20.373,70.636,0,45.504,0z M70.178,68.971
	c-0.604,0.604-1.408,0.937-2.26,0.937c-0.854,0-1.656-0.333-2.261-0.937L54.244,57.555c-0.039-0.052-0.08-0.104-0.125-0.153
	l-0.689-0.78l-0.869,0.573c-3.338,2.2-7.22,3.363-11.225,3.363c-11.264,0-20.427-9.164-20.427-20.426
	c0-11.263,9.163-20.427,20.427-20.427s20.426,9.164,20.426,20.427c0,4.005-1.162,7.886-3.361,11.225l-0.57,0.865l0.771,0.69
	c0.053,0.047,0.107,0.09,0.146,0.113l11.428,11.428C71.422,65.699,71.422,67.726,70.178,68.971z"/>
</svg>
