<?xml version="1.0" encoding="utf-8"?>
<!-- Generator: Adobe Illustrator 16.0.0, SVG Export Plug-In . SVG Version: 6.00 Build 0)  -->
<!DOCTYPE svg PUBLIC "-//W3C//DTD SVG 1.1//EN" "http://www.w3.org/Graphics/SVG/1.1/DTD/svg11.dtd">
<svg version="1.1" id="Layer_1" xmlns="http://www.w3.org/2000/svg" xmlns:xlink="http://www.w3.org/1999/xlink" x="0px" y="0px"
	 width="91.008px" height="91.008px" viewBox="0 0 91.008 91.008" enable-background="new 0 0 91.008 91.008" xml:space="preserve">
<path fill="#FFFFFF" d="M45.504,0C20.372,0,0,20.373,0,45.504s20.372,45.504,45.504,45.504c25.131,0,45.504-20.373,45.504-45.504
	S70.635,0,45.504,0z M45.154,19.854c3.921,0,7.1,3.177,7.1,7.097s-3.18,7.098-7.1,7.098c-3.921,0-7.1-3.178-7.1-7.098
	S41.234,19.854,45.154,19.854z M32.839,62.349c0,2.094-1.697,3.791-3.791,3.791s-3.79-1.696-3.79-3.791l0.026-7.81
	c-1.812,0-3.282-1.469-3.282-3.282v-2.519c0-3.107,0.684-5.804,3.25-7.166c1.15,0.554,2.436,0.874,3.796,0.874
	s2.64-0.32,3.791-0.874V62.349z M29.048,40.222c-3.104,0-5.62-2.516-5.62-5.619c0-3.103,2.517-5.619,5.62-5.619
	c3.104,0,5.621,2.516,5.621,5.619C34.669,37.707,32.152,40.222,29.048,40.222z M55.021,50.969c0,2.206-1.788,3.993-3.992,3.993
	h-0.781v10.489c0,2.811-2.28,5.092-5.093,5.092s-5.093-2.28-5.093-5.092V54.961H39.28c-2.205,0-3.992-1.788-3.992-3.993V44.02
	c0-3.78,2.127-7.06,5.248-8.717c1.401,0.674,2.963,1.063,4.618,1.063s3.219-0.389,4.617-1.063c3.122,1.657,5.25,4.937,5.249,8.717
	V50.969z M55.64,34.603c0-3.103,2.517-5.619,5.62-5.619c3.104,0,5.621,2.516,5.621,5.619s-2.517,5.619-5.621,5.619
	C58.156,40.222,55.64,37.706,55.64,34.603z M68.308,51.256c0,1.812-1.47,3.283-3.282,3.283l0.026,7.81
	c0,2.094-1.697,3.791-3.791,3.791s-3.796-1.696-3.796-3.791V41.572c1.15,0.554,2.436,0.874,3.796,0.874
	c1.361,0,2.645-0.32,3.796-0.874c2.566,1.362,3.251,4.059,3.251,7.166V51.256z"/>
</svg>
