<svg xmlns="http://www.w3.org/2000/svg" width="40" height="40" viewBox="0 0 40 40"><path fill="#E84F14" d="M20 0c-11.044 0-20 8.955-20 20 0 11.046 8.956 20 20 20 11.045 0 20-8.954 20-20 0-11.045-8.955-20-20-20zm0 36.688c-9.215 0-16.687-7.474-16.687-16.688s7.472-16.687 16.687-16.687 16.688 7.472 16.688 16.687-7.473 16.688-16.688 16.688z"/><path fill="#F6A849" d="M20 3.313c-9.215 0-16.687 7.472-16.687 16.687s7.472 16.688 16.687 16.688 16.688-7.473 16.688-16.688-7.473-16.687-16.688-16.687zm6.176 8.521c1.636 0 2.961 1.325 2.961 2.958 0 1.635-1.325 2.959-2.961 2.959-1.633 0-2.957-1.324-2.957-2.959 0-1.633 1.324-2.958 2.957-2.958zm-12.355 0c1.636 0 2.959 1.325 2.959 2.958 0 1.635-1.323 2.959-2.959 2.959-1.633 0-2.958-1.324-2.958-2.959 0-1.633 1.325-2.958 2.958-2.958zm16.884 16.677h-21.41c-.763 0-1.384-.62-1.384-1.384 0-.765.621-1.385 1.384-1.385h21.408c.765 0 1.386.62 1.386 1.385 0 .764-.621 1.384-1.384 1.384z"/><g fill="#E84F14"><circle cx="13.821" cy="14.792" r="2.958"/><circle cx="26.176" cy="14.792" r="2.958"/><path d="M30.705 25.742h-21.41c-.763 0-1.384.62-1.384 1.385 0 .764.621 1.384 1.384 1.384h21.408c.765 0 1.386-.62 1.386-1.384 0-.765-.621-1.385-1.384-1.385z"/></g></svg>