<?xml version="1.0" encoding="utf-8"?>
<!-- Generator: Adobe Illustrator 16.0.0, SVG Export Plug-In . SVG Version: 6.00 Build 0)  -->
<!DOCTYPE svg PUBLIC "-//W3C//DTD SVG 1.1//EN" "http://www.w3.org/Graphics/SVG/1.1/DTD/svg11.dtd">
<svg version="1.1" id="Layer_1" xmlns="http://www.w3.org/2000/svg" xmlns:xlink="http://www.w3.org/1999/xlink" x="0px" y="0px"
	 width="91.008px" height="91.008px" viewBox="0 0 91.008 91.008" enable-background="new 0 0 91.008 91.008" xml:space="preserve">
<path fill="#FFFFFF" d="M26.904,42.126c-2.054,0.021-3.717,1.747-3.723,3.865c-0.01,2.143,1.692,3.902,3.754,3.883
	c2.044-0.018,3.732-1.758,3.743-3.854C30.688,43.914,28.935,42.105,26.904,42.126z M64.074,42.127
	c-2.034,0.019-3.734,1.769-3.744,3.861c-0.011,2.118,1.72,3.901,3.767,3.886c2.062-0.013,3.719-1.727,3.727-3.851
	C67.834,43.881,66.128,42.108,64.074,42.127z M59.583,28.249c-0.443-1.204-1.286-1.769-2.57-1.768
	c-7.671,0.01-15.345,0.01-23.017,0.002c-1.28-0.003-2.129,0.558-2.571,1.761c-0.812,2.197-1.635,4.39-2.454,6.587
	c-0.353,0.952-0.704,1.904-1.072,2.896h35.221C61.917,34.512,60.747,31.38,59.583,28.249z M45.504,0C20.373,0,0,20.373,0,45.504
	s20.373,45.504,45.504,45.504c25.131,0,45.504-20.373,45.504-45.504S70.635,0,45.504,0z M72.622,58.729h-4.334
	c0,1.59,0.022,3.109-0.008,4.632c-0.034,1.776-0.699,3.195-2.42,3.945c-0.308,0.134-0.635,0.229-0.949,0.341h-1.327
	c-0.111-0.042-0.218-0.093-0.333-0.123c-1.522-0.403-2.555-1.342-2.909-2.884c-0.166-0.731-0.166-1.509-0.186-2.267
	c-0.028-1.198-0.008-2.397-0.008-3.634H30.86v4.298c-0.001,1.276-0.181,2.54-1.206,3.396c-0.636,0.532-1.479,0.817-2.228,1.213H26.1
	c-0.148-0.052-0.294-0.112-0.444-0.157c-1.592-0.48-2.571-1.541-2.815-3.174c-0.136-0.905-0.098-1.837-0.115-2.758
	c-0.017-0.938-0.002-1.873-0.002-2.829h-4.335V43.18c0.035-0.089,0.088-0.176,0.108-0.269c0.525-2.505,1.965-4.191,4.421-4.994
	c0.216-0.071,0.439-0.323,0.527-0.544c1.398-3.558,2.772-7.125,4.162-10.688c1.185-3.034,3.073-4.358,6.334-4.365
	c7.709-0.018,15.417-0.021,23.125,0.011c0.886,0.006,1.811,0.142,2.655,0.417c1.862,0.615,2.95,2.04,3.637,3.827
	c1.387,3.605,2.789,7.205,4.207,10.8c0.092,0.232,0.349,0.491,0.583,0.56c1.154,0.343,2.082,0.998,2.883,1.875
	c0.878,0.962,1.297,2.136,1.591,3.37V58.729z"/>
</svg>
