<?xml version="1.0" encoding="utf-8"?>
<!-- Generator: Adobe Illustrator 16.0.0, SVG Export Plug-In . SVG Version: 6.00 Build 0)  -->
<!DOCTYPE svg PUBLIC "-//W3C//DTD SVG 1.1//EN" "http://www.w3.org/Graphics/SVG/1.1/DTD/svg11.dtd">
<svg version="1.1" id="Layer_1" xmlns="http://www.w3.org/2000/svg" xmlns:xlink="http://www.w3.org/1999/xlink" x="0px" y="0px"
	 width="91.008px" height="91.009px" viewBox="0 0 91.008 91.009" enable-background="new 0 0 91.008 91.009" xml:space="preserve">
<path fill-rule="evenodd" clip-rule="evenodd" fill="#FFFFFF" d="M35.759,55.689h9.122v-7.05h-9.122V55.689z M55.248,40.485h-9.122
	v7.049h9.122V40.485z M35.621,63.983h9.122v-7.049h-9.122V63.983z M25.254,62.417c0.093,0.921,1.843,1.566,1.843,1.566l6.911,0.092
	l0.093-6.911h-8.938C25.162,57.164,25.162,61.494,25.254,62.417z M25.115,47.534h9.123v-7.049h-9.123V47.534z M25.115,55.689h9.123
	v-7.05h-9.123V55.689z M46.264,63.983h9.123v-7.049h-9.123V63.983z M56.769,47.534h9.124v-7.049h-9.124V47.534z M45.504,0
	C20.372,0,0,20.374,0,45.504c0,25.131,20.372,45.504,45.504,45.504c25.131,0,45.504-20.373,45.504-45.504
	C91.008,20.374,70.635,0,45.504,0z M54.696,24.382c0-0.954,0.772-1.728,1.727-1.728c0.955,0,1.728,0.774,1.728,1.728v6.772
	c0,0.955-0.772,1.728-1.728,1.728c-0.954,0-1.727-0.773-1.727-1.728V24.382z M33.134,24.243c0-0.954,0.772-1.728,1.728-1.728
	c0.953,0,1.727,0.773,1.727,1.728v6.773c0,0.954-0.773,1.728-1.727,1.728c-0.955,0-1.728-0.773-1.728-1.728V24.243z M69.071,61.633
	c0,3.054-2.476,5.529-5.529,5.529H27.466c-3.054,0-5.529-2.475-5.529-5.529V32.744c0-3.054,2.476-5.529,5.529-5.529h4.146v3.594
	c0,1.832,1.485,3.317,3.317,3.317s3.317-1.486,3.317-3.317v-3.594h14.928v3.732c0,1.832,1.486,3.316,3.317,3.316
	c1.832,0,3.317-1.485,3.317-3.316v-3.732h3.732c3.054,0,5.529,2.475,5.529,5.529V61.633z M56.769,55.689h9.124v-7.05h-9.124V55.689z
	 M55.248,48.64h-9.122v7.05h9.122V48.64z M35.759,47.534h9.122v-7.049h-9.122V47.534z"/>
</svg>
