<svg xmlns="http://www.w3.org/2000/svg" width="40" height="40" viewBox="0 0 40 40"><path fill="#C9151A" d="M20 0c-11.044 0-20 8.955-20 19.999 0 11.047 8.956 20 20 20 11.046 0 20-8.953 20-20 0-11.044-8.954-19.999-20-19.999zm0 36.688c-9.216 0-16.687-7.473-16.687-16.689 0-9.216 7.471-16.687 16.687-16.687s16.687 7.473 16.687 16.687c0 9.217-7.471 16.689-16.687 16.689z"/><path fill="#F08A77" d="M20 3.312c-9.216 0-16.687 7.473-16.687 16.687 0 9.217 7.471 16.689 16.687 16.689s16.687-7.473 16.687-16.689c0-9.216-7.471-16.687-16.687-16.687zm5.993 8.523c1.634 0 2.96 1.323 2.96 2.958 0 1.633-1.325 2.957-2.96 2.957-1.634 0-2.957-1.324-2.957-2.957 0-1.635 1.322-2.958 2.957-2.958zm-11.986 0c1.635 0 2.959 1.323 2.959 2.958 0 1.633-1.323 2.957-2.959 2.957-1.634 0-2.958-1.324-2.958-2.957 0-1.635 1.324-2.958 2.958-2.958zm16.117 18.506c-.693.256-1.462-.1-1.718-.793-.082-.221-.227-.465-.346-.65-.372-.59-.851-1.131-1.424-1.604-.819-.68-1.805-1.191-2.928-1.529-.684-.205-1.428-.346-2.213-.418-.907-.084-1.78-.08-2.6.01-1.412.154-2.793.598-3.996 1.279-.904.514-1.728 1.158-2.448 1.918-.407.432-.72.82-.954 1.191l-.017.029c-.251.418-.696.648-1.149.648-.233 0-.471-.061-.686-.189-.634-.381-.841-1.201-.46-1.836l.051-.084c.33-.52.745-1.041 1.273-1.602.902-.951 1.934-1.762 3.069-2.404 1.54-.871 3.229-1.416 5.024-1.613.996-.107 2.053-.113 3.138-.012.962.09 1.881.264 2.734.52 1.468.439 2.768 1.121 3.864 2.025.794.658 1.462 1.412 1.984 2.242.188.297.426.697.591 1.152.261.694-.096 1.466-.789 1.72z"/><g fill="#C9151A"><circle cx="14.007" cy="14.793" r="2.958"/><circle cx="25.993" cy="14.793" r="2.958"/><path d="M30.328 27.472c-.525-.832-1.191-1.586-1.986-2.244-1.098-.902-2.396-1.586-3.865-2.025-.853-.254-1.771-.43-2.732-.518-1.086-.102-2.144-.098-3.139.012-1.795.197-3.485.74-5.024 1.611-1.136.645-2.168 1.453-3.07 2.404-.527.561-.943 1.082-1.272 1.602l-.052.084c-.38.635-.173 1.457.46 1.836.215.129.452.189.688.189.454 0 .898-.229 1.147-.648l.019-.029c.234-.369.547-.76.954-1.191.72-.758 1.542-1.404 2.446-1.916 1.204-.682 2.587-1.127 3.997-1.279.818-.092 1.692-.094 2.6-.01.785.072 1.528.211 2.213.418 1.123.336 2.107.848 2.927 1.527.573.473 1.055 1.014 1.426 1.604.118.188.262.43.345.652.255.693 1.023 1.047 1.719.791.692-.254 1.048-1.025.792-1.719-.17-.454-.406-.854-.593-1.151z"/></g></svg>