<svg xmlns="http://www.w3.org/2000/svg" width="32" height="33.239" viewBox="0 0 32 33.239"><path fill="#8D8D8D" d="M30.827.065c.782.217 1.173.739 1.173 1.565 0 .13-.022.304-.064.521-.262.738-.76 1.107-1.501 1.107h-28.804c-.174 0-.349-.021-.522-.064-.74-.261-1.109-.783-1.109-1.564 0-.13.022-.261.064-.391.217-.826.74-1.239 1.567-1.239h28.804c.13 0 .261.022.392.065zm-3.585 15.838c.607.738.607 1.499 0 2.28-.348.261-.717.414-1.108.457-.391 0-.76-.153-1.106-.457l-7.366-7.43v20.921c0 .131-.021.283-.063.456-.262.739-.783 1.109-1.566 1.109-.129 0-.259-.022-.389-.065-.828-.217-1.238-.717-1.238-1.5v-20.921l-8.019 8.082c-.302.261-.673.413-1.106.457-.436 0-.804-.152-1.107-.457l-.131-.195c-.608-.74-.564-1.412.131-2.021l10.684-10.754c.392-.347.871-.499 1.434-.456.349.087.632.239.848.456l10.102 10.038z"/></svg>