<svg xmlns="http://www.w3.org/2000/svg" width="16" height="16" viewBox="0 0 16 16"><path fill="#439715" d="M8 0c-4.418 0-8 3.582-8 8 0 2.789 1.43 5.242 3.594 6.675-.022-.253-.024-.523.014-.835.065-.533 1.537-6.861 1.599-7.13l.017-.055c.136-.684.74-1.202 1.464-1.202.823 0 1.492.669 1.492 1.492 0 .143-.026.278-.064.409l.007.002c-.471 2.042-1.355 5.923-1.377 6.076-.023.19-.003.323.059.395.056.062.157.093.312.093l.399-.076.166-.038c.037 0 .136 0 .201.073.064.073.062.176.05.276 0 .005-.066.444-.278 1.162-.076.265-.246.477-.465.642.265.027.536.041.81.041 4.418 0 8-3.582 8-8s-3.582-8-8-8zm-.44 5.055c-.879 0-1.594-.715-1.594-1.593 0-.879.715-1.594 1.594-1.594.878 0 1.593.715 1.593 1.594-.001.878-.715 1.593-1.593 1.593z"/><circle fill="#fff" cx="7.56" cy="3.461" r="1.593"/><path fill="#fff" d="M7.654 15.317c.211-.718.277-1.157.278-1.162.012-.101.015-.203-.05-.276-.065-.073-.164-.073-.201-.073l-.166.038c-.104.032-.245.076-.4.076s-.256-.03-.312-.093c-.062-.071-.082-.204-.059-.395.021-.153.906-4.034 1.377-6.076l-.006-.002c.038-.13.065-.266.065-.409 0-.823-.669-1.492-1.492-1.492-.724 0-1.328.518-1.463 1.202l-.017.055c-.062.269-1.534 6.597-1.599 7.13-.038.312-.036.582-.014.835 1.051.695 2.274 1.151 3.594 1.284.219-.165.389-.377.465-.642z"/></svg>