<svg xmlns="http://www.w3.org/2000/svg" width="188.568" height="120" viewBox="0 0 188.568 120"><path fill="#fff" d="M96.814.387h-93.119c-1.826 0-3.307 1.469-3.307 3.283v112.652c0 1.816 1.48 3.286 3.307 3.286h93.119v-119.221z"/><path fill="#ED1C24" d="M95.793 4.729v114.881h89.084c.773 0 1.475-.275 2.037-.718-6.592-51.797-41.34-94.902-91.121-114.162v-.001z"/><linearGradient id="a" gradientUnits="userSpaceOnUse" x1="-325.264" y1="-615.818" x2="-283.539" y2="-692.625" gradientTransform="matrix(1 0 0 -1 452 -640.109)"><stop offset="0" stop-color="#F26649"/><stop offset="1" stop-color="#ED1C24"/></linearGradient><path fill="url(#a)" d="M184.877.387h-89.084v4.341c49.783 19.266 84.531 62.367 91.123 114.161.764-.6 1.268-1.52 1.268-2.568v-112.653c0-1.814-1.482-3.283-3.309-3.283l.002.002z"/><path d="M31.098 43.476h-4.908c-.441 0-.662-.111-.844-.405l-8.391-12.418v12.093c0 .4-.332.73-.732.73h-3.625c-.408 0-.738-.328-.738-.73v-25.605c0-.4.332-.691.738-.691h3.625c.4 0 .732.29.732.691v11.583l8.977-11.983c.182-.254.438-.29.84-.29h4.176c.48 0 .701.182.701.438 0 .182-.111.401-.258.582l-9.377 12.052 9.449 13.185c.111.181.186.329.186.438-.001.218-.184.33-.551.33zm17.191-8.598h-11.947v.111c0 2.111.881 4.623 4.396 4.623 2.678 0 5.205-.218 6.744-.363h.107c.369 0 .662.182.662.547v2.402c0 .583-.111.839-.77.947-2.383.438-3.811.619-7.109.619-3.666 0-8.869-1.969-8.869-9.142v-2.694c0-5.684 3.189-9.253 8.797-9.253 5.643 0 8.721 3.826 8.721 9.253v2.039c0 .586-.218.911-.732.911zm-4.143-3.567c0-2.841-1.572-4.481-3.846-4.481-2.27 0-3.92 1.602-3.92 4.481v.146h7.766v-.146zm23.604 12.165h-3.441c-.406 0-.697-.365-.697-.767v-12.601c0-1.785-.365-3.424-2.49-3.424h-2.272c-2.127 0-2.49 1.637-2.49 3.424v12.6c0 .402-.297.768-.699.768h-3.445c-.402 0-.693-.365-.693-.768v-12.6c0-4.407 2.564-7.431 7.328-7.431h2.27c4.764 0 7.326 3.023 7.326 7.431v12.6c-.002.402-.291.768-.697.768zm13.709 0c-.879.145-2.746.29-4.283.29-3.631 0-5.791-1.237-5.791-5.462v-18.358c0-.398.33-.656.73-.728l3.412-.583h.111c.328 0 .621.362.621.73v3.566h5.162c.406 0 .734.33.734.729v2.148c0 .402-.33.731-.734.731h-5.161v11.763c0 1.457.658 1.713 2.234 1.713h2.895c.475 0 .768.18.768.545v2.259c-.001.364-.219.581-.698.657zm-59.268 22.25c-.346.091-1.859.361-3.621.361-2.748 0-6.479-1.344-6.479-6.965v-3.344c0-5.713 3.73-6.965 6.479-6.965 1.762 0 3.273.271 3.621.365.297.091.504.201.504.521v1.529c0 .27-.119.477-.461.477h-.043c-.803-.069-2.359-.184-3.574-.184-1.924 0-3.318 1.025-3.318 4.256v3.344c0 3.166 1.395 4.258 3.318 4.258 1.215 0 2.773-.115 3.574-.181h.043c.342 0 .461.2.461.478v1.525c0 .32-.207.431-.504.525zm7.651.361c-3.594 0-5.473-2.409-5.473-5.666v-1.842c0-3.256 1.879-5.667 5.473-5.667 3.598 0 5.477 2.411 5.477 5.667v1.842c-.001 3.256-1.88 5.666-5.477 5.666zm2.453-7.508c0-1.868-.85-3.074-2.451-3.074-1.598 0-2.453 1.206-2.453 3.074v1.842c0 1.869.855 3.074 2.453 3.074 1.602 0 2.451-1.207 2.451-3.074v-1.842zm10.402 7.508h-.137c-1.352 0-5.223-.541-5.223-5.507v-7.032c0-.249.18-.479.434-.479h2.154c.254 0 .436.229.436.479v7.032c0 2.369.869 2.915 2.199 2.915h.139c1.326 0 2.195-.546 2.195-2.915v-7.032c0-.249.186-.479.439-.479h2.148c.25 0 .436.229.436.479v7.032c.001 4.966-3.868 5.507-5.22 5.507zm17.662-.18h-2.154c-.254 0-.438-.228-.438-.479v-7.875c0-1.113-.227-2.14-1.555-2.14h-1.42c-1.33 0-1.559 1.026-1.559 2.14v7.875c0 .25-.184.479-.434.479h-2.152c-.254 0-.439-.228-.439-.479v-7.875c0-2.752 1.605-4.642 4.584-4.642h1.42c2.977 0 4.578 1.89 4.578 4.642v7.875c.003.251-.181.479-.431.479zm9.026 0c-.553.09-1.715.18-2.676.18-2.27 0-3.623-.771-3.623-3.412v-11.471c0-.25.209-.41.459-.457l2.133-.365h.066c.207 0 .389.229.389.457v2.23h3.229c.254 0 .457.204.457.456v1.344c0 .249-.201.455-.457.455h-3.229v7.351c0 .91.408 1.07 1.396 1.07h1.805c.305 0 .484.116.484.341v1.409c.002.231-.132.365-.433.412zm7.584 4.551c-1.924 0-3.434-.273-4.279-.545-.322-.092-.459-.229-.459-.545v-1.207c0-.227.186-.387.434-.387h.047c1.031.092 3.207.273 4.258.273 1.852 0 2.131-.458 2.131-2.026v-.18c-.48.09-1.646.247-2.199.247-3.686 0-5.473-2.16-5.473-5.712v-6.851c0-.25.205-.456.457-.456h2.105c.252 0 .461.204.461.456v6.85c0 1.868.479 3.257 2.451 3.257.551 0 1.559-.091 2.197-.184v-9.924c0-.249.203-.456.457-.456h2.104c.256 0 .461.204.461.456v12.337c-.001 3.231-1.645 4.597-5.153 4.597zm-54.969 19.583c-.346.092-1.859.366-3.623.366-2.746 0-6.48-1.343-6.48-6.966v-3.345c0-5.714 3.734-6.965 6.48-6.965 1.764 0 3.275.273 3.623.365.297.09.502.199.502.521v1.523c0 .275-.117.48-.461.48h-.041c-.803-.068-2.359-.184-3.572-.184-1.924 0-3.32 1.025-3.32 4.258v3.346c0 3.163 1.395 4.256 3.32 4.256 1.213 0 2.77-.114 3.572-.181h.041c.346 0 .461.206.461.478v1.523c0 .308-.205.421-.502.515v.01zm7.648.361c-3.59 0-5.473-2.415-5.473-5.672v-1.842c0-3.256 1.883-5.67 5.473-5.67 3.598 0 5.477 2.414 5.477 5.67v1.842c0 3.263-1.877 5.672-5.477 5.672zm2.457-7.51c0-1.867-.852-3.076-2.455-3.076-1.602 0-2.451 1.209-2.451 3.076v1.842c0 1.868.85 3.075 2.451 3.075 1.604 0 2.455-1.208 2.455-3.075v-1.842zm10.401 7.51h-.141c-1.352 0-5.219-.547-5.219-5.512v-7.028c0-.251.182-.481.434-.481h2.152c.252 0 .436.229.436.481v7.032c0 2.368.871 2.916 2.199 2.916h.139c1.328 0 2.199-.548 2.199-2.916v-7.036c0-.25.184-.48.436-.48h2.15c.252 0 .436.229.436.48v7.032c0 4.968-3.871 5.508-5.221 5.508v.004zm17.658-.18h-2.148c-.254 0-.439-.227-.439-.478v-7.876c0-1.113-.225-2.139-1.555-2.139h-1.422c-1.328 0-1.557 1.025-1.557 2.139v7.876c0 .25-.182.477-.434.477h-2.154c-.248 0-.434-.227-.434-.477v-7.876c0-2.754 1.602-4.644 4.578-4.644h1.422c2.979 0 4.58 1.892 4.58 4.644v7.876c0 .248-.182.479-.438.479v-.001zm10.566-.112c-.529.136-1.559.296-2.953.296-2.977 0-5.223-1.822-5.223-5.532v-2.119c0-3.707 2.248-5.529 5.223-5.529 1.395 0 2.424.158 2.953.294.389.094.477.23.477.595v1.48c0 .225-.178.34-.404.34h-.073c-.918-.115-1.467-.156-2.953-.156-1.08 0-2.203.613-2.203 2.978v2.119c0 2.367 1.123 2.981 2.203 2.981 1.486 0 2.035-.044 2.953-.159h.072c.227 0 .404.115.404.34v1.48c0 .352-.088.488-.477.583v.009zm5.176.112h-2.107c-.248 0-.453-.227-.453-.478v-11.903c0-.25.205-.457.453-.457h2.107c.256 0 .461.205.461.457v11.904c0 .249-.205.479-.461.479v-.002zm5.754 0h-2.133c-.254 0-.459-.227-.459-.478v-16.388c0-.247.205-.455.459-.455h2.133c.252 0 .43.209.43.455v16.39c0 .248-.178.48-.43.48v-.004zm2.572 6.952c0 .211-.168.377-.379.377h-71.572c-.211 0-.383-.166-.383-.377v-.717c0-.212.172-.381.383-.381h71.572c.211 0 .379.17.379.381v.72-.003z" fill="#231F20"/><path fill="#fff" d="M132.59 29.706c-.25-.348-.184-.252.156-.693.332-.449.156-.24.68-.121.527.109.568.331.381.627-.172.309-.668.336-1.207.188h-.01zm23.58-11.07s3.166 3.312 2.807 9.844c-.359 6.529-3.762 11.686-3.762 11.686s4.781-4.506 4.539-12.037c-.24-7.535-3.582-9.492-3.582-9.492h-.002zm20.201 48.289s.363-3.291-1.578-3.93c-1.947-.644-3.473-.878-4.125.749-.641 1.638-1.195 4.596-1.863 5.881-.668 1.287-1.977 2.364-2.84 2.364-.857 0-2.711-.125-2.711-.125l-.488-1.149s2.123.841 3.199.304c1.08-.536 2.012-1.037 2.555-3.288.537-2.247.105-5.934.971-8.081.855-2.137 2.801-4.418 5.09-4.203 2.279.218 3.379.348 4.537 2.502 1.004 1.865 1.623 4.643-.363 9.342-1.287 3.035-2.4 4.143-3.352 7.508-1.025 3.654 1.68 4.091 2.861 6.986 1.189 2.892.223 2.77 0 4.81-.215 2.031.49 4.834.49 4.834l-1.463-1.379s.691-3.791.361-5.295c-.326-1.494-3.082-4.098-3.082-4.098s2.078 3.008 1.984 5.465c-.119 3.215-1.436 6.09-1.436 6.09s1.287-3.424-.057-6.148c-.857-1.73-1.162-.945-2.135-3.493-.699-1.83-.615-3.953-.615-3.953s-.891 2.038-.453 4.417c.43 2.379.773 2.141.344 3.665-.471 1.673-1.859 3.347-1.859 3.347s1.178-1.86.475-4.164c-.754-2.471-1.221-1.914-1.162-4.313.08-3.191 2.438-4.898 2.438-4.898s-1.84-.037-2.928 2.535c-1.076 2.572-.758 3.723-.758 3.723s-1.295-2.461.326-4.951c1.611-2.484 1.955-1.543 4.111-4.443 2.158-2.891 4.014-4.064 4.338-7.309.324-3.235-.066-6.025-1.529-6.363-3.23-.755-4.662 2.163-4.662 2.163s2.455-1.652 4.314-.472c1.859 1.186 1.07 5.378 1.07 5.378l-.005-.008zm3.531-.784s-.486 1.872-1.826 4.942c-.906 2.068-2.047 4.395-.918 6.791.631 1.338 1.352 1.583 2.324 3.914.977 2.339-.186 3.942-.186 3.942s1.713-1.729 1.252-3.638c-.459-1.91-2.172-3.935-2.592-5.037-.674-1.762.293-4.447.852-5.91 1.09-2.892 1.09-5.005 1.09-5.005h.004zm-38.912-56.445s.807-.589 1.871-.589c1.066 0 2.447.686 2.447.686s.098.984-.1 1.473c-.195.485-.195.857-.195.857l-1.186.195s.02-.759-.869-1.543c-.883-.783-1.963-1.079-1.963-1.079h-.005zm-2.734.978s1.156-.488 2.732.193c1.58.694 1.377 2.138 1.377 2.138s-.195.292-.891.786c-.689.486-.785.486-.785.486s-.434-.449-1.152-.594c-.705-.144-2.066-.1-.791-.392.799-.179 2.242.351 2.244-.087 0-.502-.346-1.309-.936-1.693-.602-.398-1.811-.838-1.811-.838h.013zm11.168 1.842s.674-.641 1.482-1.059c.799-.406 2.639-.59 2.639-.59s-1.188.496-1.969 1.648c-.752 1.104-.967 1.762-.967 1.762l-.494-.293-.686-1.469h-.005zm2.744 2.449s2.379-1.174 3.451-1.366c1.061-.2 1.26-.302 2.143 0 .891.29.965 0-.584.583-1.559.588-2.549 2.227-2.549 2.227s-.59-.56-1.082-.95c-.506-.392-1.389-.493-1.389-.493h.01zm3.531 2.43s.49.49 2.064.392c1.582-.102 1.756-.686 3.336-.196 1.574.487 2.262 1.671 2.262 1.671l-1.672.094s-.904-.588-1.576-.682c-.67-.099-1.756.094-1.756.094s1.064.119 2.057.879c.98.765.783 1.159 1.865 1.945 1.082.781 1.955.607 2.545 1.762.592 1.154 1.576 3.111 1.576 3.111s-1.201-.684-2.271-.588c-1.062.102-1.455.588-2.045.295-.592-.295-1.379-.885-1.379-.885l-.324-2.031s.971.753 1.699.783c.309.014.795-.102.795-.102s-1.562-.438-1.785-1.259c-.189-.702-1.744-1.479-1.744-1.479s-1.285-2.137-1.779-2.525c-.465-.398-1.844-1.278-1.844-1.278h-.024zm10.592 13.559s-1.299-1.648-2.062-2.528c-.77-.884-.871-.985-.871-.985s-.49.297-.986.103c-.488-.195-1.777-.878-1.777-.878s.303.998.303 1.568c0 .561-.098 1.054-.098 1.054s.885-.392 1.572 0c.691.396.77-.294 1.561 0 .789.292 2.357 1.667 2.357 1.667h.001zm-5.492-.392s.49-.393.885-.196l.787.487s-.473 1.254.492 2.333c.969 1.077 2.74 2.45 2.938 4.585.195 2.129-.402 3.604-.402 3.604s.627-1.875-1.471-4.283c-1.268-1.454-.674-.676-2.445-1.066-1.502-.333-1.576-1.67-1.576-1.67s.16-.398.301-.871c.1-.369 2.455 2.641.191-1.066-.105-.17.033-.44.062-.687.102-.585.248-1.169.248-1.169h-.01zm-4.029 10.246s3.096-2.213 4.67-.371c1.574 1.841.338 2.406.168 4.81-.164 2.349 2.42 3.457 2.42 3.457s-1.092-.815.168-3.829c.637-1.515.514-6.635-3.207-6.91-.846-.059-1.455-1.352-1.455-1.352s-.596 1.451-1.184 2.232c-.592.786-1.588 1.963-1.588 1.963h.008zm-15.686 1.248s1.973-.486 2.248-.975c.275-.49.197-1.156 1.279-.863s.965 1.938 2.74 2.331c1.775.394 5.006-.294 5.006-.294s-3.43 2.058-5.178 1.855c-1.754-.191-1.477-1.369-2.664-1.967-1.174-.584-3.43-.088-3.43-.088h-.001zm14.477-.36s-1.438.653-2.178 1.639c-1.424 1.881-.342.648-1.604 2.293-1.047 1.367-1.662 1.854-4.225 2.344-.893.172-4.395-.491-4.395-.491s1.654 1.551 5.271 1.28c3.363-.257 4.717-1.376 4.717-1.376s-1.137 3.099-7.352 2.622c-1.619-.12-2.965.703-2.965.703s0 1.222-1.051 2.51c-1.066 1.316-2.168 1.477-2.168 1.477s1.365.594 3.801-1.903c.961-.993.273-1.169 1.195-1.474.615-.203 4.002.018 7.254-.979 2.385-.742 3.451-3.795 3.65-5.021.049-.297-3.863 2.07-1.146-1.822.387-.654 1.209-1.801 1.209-1.801h-.013zm1.945.164c.777-.447 1.438-.921 2.309-.242 1.25.982-.197 1.894.098 3.753.295 1.858 1.012 2.791 1.012 2.791s-1.557 1.011-2.314 1.763c-.902.904-.902 2.051-.902 2.051s-.742-1.311.746-2.906c.805-.848 1.348-2.346.73-3.887-1.064-2.711-2.189-1.992-3.662-1.033-1.191.787.293-1.307 1.988-2.289h-.005zm-28.379-3.115s-2.051-1.625-3.334-2.119c-1.279-.484-2.504-1.959-3.07-2.838-.582-.885-1.365-2.324-2.936-3.377-1.459-.982-1.562-.582-5.486.108-3.918.681-4.221.807-5.91.807-2.713 0-3.838 1.358-2.605 1.563 2.346.391 2.748 2.094 3.367 1.4 1.35-1.502 2.939-1.674 4.99-1.771 2.049-.101 3.137-.508 3.805.074.668.593.08.689 1.064 1.573.984.876.592.118 1.182 1.472.594 1.346.982 4.559 4.021 6.223 3.037 1.672 2.738 1.338 2.738 1.338s.1-1.605.789-2.586c.693-.981 1.389-1.867 1.389-1.867h-.004zm-22.859-4.56s-1.285-.805-2.844.368c-1.557 1.181-2.383 3.142-1.992 3.284.635.227 3.109-.144 3.277-.625.416-1.242.469-1.93.865-2.327.395-.388.695-.7.695-.7h-.001zm-4.92 3.865c-.207-.087-.254-.292-.252-.429.025-.707.832-2.202 2.178-3.247.695-.527 1.357-.686 1.885-.686.729 0 1.199.291 1.219.302l-.119.194.119-.194.236.15-.193.2-.697.701c-.312.294-.398.979-.816 2.24-.352.648-1.852.796-2.885.848-.266-.006-.488-.018-.678-.08h.003zm.685-.373c.459 0 1.082-.077 1.592-.197.516-.097.873-.311.865-.34.418-1.222.443-1.908.922-2.413l.465-.466c-.168-.061-.408-.117-.709-.117-.436 0-.992.125-1.604.59-1.25.922-2.023 2.477-2 2.89v.021c.086.018.266.033.463.033h.006zm14.315 29.781c.748.836 1.076 1.081 1.943 1.551.867.477 1.301.34 1.301.34s.098-.996.061-1.602c-.055-.959-.555-1.612-.555-1.612s-1.039-.204-1.619-.488c-.451-.222-.553-1.06-.553-1.06s-1.85 1.451-.582 2.871h.004zm1.834 1.748c-.875-.475-1.254-.758-2.004-1.6l.17-.148.172-.148c.742.826 1.021 1.025 1.883 1.504.484.26.811.319.98.326.02-.249.057-.697.057-1.089l-.01-.289c-.047-.709-.354-1.244-.469-1.425-.268-.053-1.061-.232-1.576-.491-.342-.19-.512-.536-.592-.815-.279.299-.674.812-.668 1.355.004.287.104.589.395.924l-.172.148-.17.148c-.359-.397-.506-.826-.502-1.221.016-1.152 1.102-1.957 1.102-1.978l.318-.248.055.397c.002 0 .146.786.426.882.535.265 1.557.47 1.561.47l.084.019.055.066c.01.019.537.706.605 1.739l.004.314c0 .604-.072 1.316-.072 1.32l-.014.154-.15.04-.232.024c-.232.001-.652-.059-1.225-.381h-.011zm17.125-3.353s.088 2.219 1.27 3.695c1.182 1.47 2.936 2.369 3.725 3.332.785.956 1.379 2.527 1.379 2.527s-1.201-.308-1.6 1.339c-.393 1.646.588 2.847.113 3.14-.465.293-2.143.588-4.287 1.936-2.15 1.346-7.377 4.462-8.242 5.345-.869.881-1.693 1.828-1.693 1.828s-.531-.609-1.518-.219c-.982.396-1.076.922-1.076.922l-2.232-.268s1.061-1.178 1.365-2.055c.291-.887 1.459-.324 2.746-1.017 1.277-.679 2.816-1.831 5.068-3.675 2.246-1.845 4.396-3.208 4.004-4.356-.396-1.158-2.965-2.025-4.225-5.143-1.262-3.117-.473-6.034.484-6.527.959-.478 4.715-.794 4.715-.794l.004-.01zm-15.274 24.926c-.389.494-.484 1.244-.697 2.183-.203.939-.135 1.986-.135 1.986s1.541-.249 2.504-1.327c.967-1.078.945-1.955.871-2.347-.074-.396-.471-.688-.471-.688s-1.68-.3-2.074.188l.002.005zm-1.054 4.183l-.014-.465c0-.407.023-1.005.154-1.591.209-.928.289-1.694.74-2.273.295-.342.773-.354 1.223-.365.547 0 1.059.089 1.158.133.01.014.447.31.562.828.02.1.039.231.033.393.008.51-.182 1.282-.959 2.144-1.027 1.156-2.617 1.392-2.633 1.399l-.246.035-.018-.249v.011zm.583-1.954c-.119.528-.145 1.106-.145 1.488l.004.166c.459-.123 1.457-.448 2.119-1.198.701-.788.84-1.433.842-1.843l-.025-.309c-.043-.248-.309-.486-.309-.512-.086-.013-.521-.087-.965-.087-.41-.009-.809.093-.871.2-.324.42-.428 1.148-.643 2.1l-.007-.005zm35.167 19.834s1.756-.487 2.541-1.371c.791-.879 1.086-1.158 1.086-1.641 0-.492-.094-2.256-.094-2.256s-.303.392-1.184.588c-.889.195-.967.391-1.459 1.178-.496.779-.891 3.496-.891 3.496v.006zm-.223-.034c.004-.016.371-2.698.912-3.597.461-.759.682-1.088 1.604-1.272.836-.183 1.047-.506 1.047-.506l.373-.501.037.624s.102 1.761.102 2.272c-.014.609-.375.922-1.143 1.789-.873.962-2.635 1.43-2.648 1.437l-.062-.215.062.215-.338.091.053-.342.001.005zm2.615-4.432c-.855.208-.781.266-1.312 1.069-.346.533-.674 2.291-.803 3.057.541-.188 1.586-.605 2.094-1.189.805-.897 1.035-1.136 1.027-1.49 0-.328-.043-1.248-.078-1.806-.197.128-.506.274-.926.36l-.002-.001zm4.483-30.93c1.32-4.576.631-3.887-.791-6.901-1.422-3.024-1.604-3.894-3.492-5.695 0 0-.535-1.09-3.775-3.75-2.031-1.657-3.049-3.061-4.006-5.262-.693-1.605-.592-3.382-.592-3.382s-3.281.195-3.879.654c-.91.695-3.215 3.342-5.797 3.203-4.418-.236-4.9-2.49-4.9-2.49s5.744 1.426 6.934-2.316c.307-.973-1.314-.59-3.285.594-.803.482.119-2.256 3.16-2.375 4.123-.16 2.211-.771.244-1.242-2.061-.502-4.602.537-4.602.537s.768-1.072 2.93-2.315c3.125-1.8 5.59.214 6.865.118 3.166-.239 4.475-2.561 4.475-2.561s-1.969 1.33-3.996 1.372c-3.287.063-2.443-2.241-4.955-2.554-1.912-.238-3.283 1.843-3.283 1.843s-.717-3.147 2.207-3.978c2.041-.581 1.033-2.316 2.932-2.316 3.881 0 2.395 2.304 4.643 2.649 2.236.339 3.627-.591 5.006-1.845 1.773-1.857 5.498-10.944 2.91-16.719-1.148-3.123-2.371-4.862-3.533-5.87v-.01c-1.18-1.018-2.305-1.281-3.223-1.461-.602-.124-1.076-1.545-1.076-1.545s-.24-1.666-.812-2.986c-.775-1.794-1.553-1.379-1.553-1.379s-.109.47.033 1.57c.139 1.102-.033 2.041-.033 2.041s-.676 1.35-1.162.871c-.488-.483-.479-1.068-.479-1.068s-.68.157-2.488 1.816c-1.816 1.654-2.471 1.835-3.031 3.74-.924 1.653-1.988 3.189-4.025 4.804-2.035 1.604-3.551 2.082-4.066 2.57-.852.536-.225.709 0 1.232.221.521.133 1.238 1.762.825 1.164.035 1.348.446 1.729.7 1.346.891-.75 2.447 0 2.567 1.719.303 1.346-2.058 1.947-2.567.592-.52.941-.562 1.916-.82.967-.265 1.457-.372 2.02-.113.559.268 3.156 1.443 5.07.561 4.562-.854 5.971-7.165 5.971-7.165l-.031.143.031.077c.057 1.092-.039 5.979-5.797 9.232-1.803 1.344-2.291 1.73-3.152 1.981-.865.259-1.908-.263-3.82.737-1.91 1.012-2.176 1.64-3.146 2.283-.971.63-2.357.547-2.92 1.258-.562.709-1.459 1.642-2.207 3.129-.752 1.488-1.918 2.527-2.027 3.723-.111 1.195-.111 2.564-.111 2.564s.975-.04 1.873 0c.904.039 2.057.076 2.057.076s.158-.578 1.541-2.044c1.049-1.119 2.154-1.947 2.393-1.602.264.372-.598.409-1.492 1.602-1.242 1.646-1.127 3.347-1.127 3.347s-3.562-.184-6.18-.07c-2.619.109-2.246-.18-3.213.039-.98.227-5.324 1.264-6.225 1.334-.895.079-2.133-.283-3.061.569-.934.86-.529 2.607-.568 3.191-.037.591.26 6.21.039 6.813-.227.594-.678 1.781-.416 2.49.262.706.598.816.973 1.903.377 1.079 2.053-.669 2.656-1.569.207-.298.676-.747 0-1.156-.045-.132-.074.068-.516-1.135-.684-1.821-.652-1.492-.465-3.322.189-1.821-.094-2.676.172-3.018.25-.336-.012-.373.404-.674.41-.29 1.129-1.119 1.727-1.191.596-.074 3.139.416 5.277.295 2.135-.104 4.996-.056 7.328-.291 4.125-.408 4.744-1.638 5.197-1.305.248.184.803 1.707-1.855 2.375-2.604.652-4.191.229-4.191.229s1.721 2.861 2.99 5.211c1.279 2.341 1.682 4.729 3.107 6.628.695 1.742-.121 3.741 3.836 6.134 1.43.861 2.613 4.23 2.613 4.23.402.278.051.777 1.121.564 1.078-.213 1.729.213 1.729.213s-.219-.557.434-3.016c.643-2.465 2.418-5.598 2.418-5.598s-1.322 3.449-1.217 7.758c.109 4.31.434 5.934 1.73 8.515 1.297 2.572 1.449 2.197 4.387 4.891 2.934 2.707 3.363 3.141 3.584 5.6.215 2.465.32 2.607 0 5.334-.314 2.596-.064 3.72-1.068 5.863-.314.677-.869 1.481-.117 1.699.762.215.811-.457 1.674-1.203.857-.75 1.992-.217 1.992-2.484 0-2.271-.662-1.571-.229-5.232.436-3.666 1.707-5.065 1.387-6.242-.328-1.181-1.494-.908-1.928-2.867-.436-1.947-.549-5.395-1.52-6.468-.969-1.07 2.271.919 4.02-5.125h-.011zm-26.545-50.592c-.283.339-1.23.562-1.23.562-.006-.238.078-.8.078-.8l-.494.06h-.762c-.125-1.031 1.094-1.438 1.992-1.167.898.266.703 1.006.42 1.345h-.004zm10.978-7.447c-.707.725-2.828.878-3.26.878-.436 0-.791-.247-1.164-.446-.371-.199.018-.485.107-.516.094-.033.396-.314.441-.348.049-.029.223-.328.449-.418.234-.082.484.012.695.135.203.121.465.176.465.176h.035l.086.194c-.031.038-.094.022-.273.014-.174-.007-.377-.214-.547-.155-.172.064-.092.363-.092.357.238.369.613.346.604.338 1.146-.453 1.621-1.202 1.621-1.202-.008-.068-1.992-.223-2.355-.269-.365-.045-.242-.36-.039-.36.199 0 2.764-.187 2.764-.187s.266.055.527.385c.275.33.652.7-.051 1.424h-.013zm38.84 100.591h-181.182c-2.037 0-3.695-1.645-3.695-3.668v-112.662c0-2.022 1.658-3.668 3.695-3.668h181.182c2.029 0 3.691 1.646 3.691 3.67v112.652c0 1.119-.514 2.166-1.414 2.871-.668.531-1.457.807-2.279.807l.002-.002zm-181.182-119.227c-1.609 0-2.917 1.3-2.917 2.896v112.653c0 1.6 1.308 2.899 2.917 2.899h181.182c.65 0 1.27-.219 1.799-.635.711-.559 1.119-1.384 1.119-2.266v-112.652c0-1.598-1.309-2.896-2.916-2.896h-181.191l.007.001z"/></svg>