<svg xmlns="http://www.w3.org/2000/svg" width="422.393" height="48" viewBox="0 0 422.393 48"><path d="M23.051 38.059h-3.875c-.436 0-.775-.15-1.064-.504l-13.706-17.371v16.871c0 .5-.338 1.004-.873 1.004h-2.662c-.482 0-.871-.451-.871-1.004v-35.347c0-.502.389-.954.921-.954h2.565c.482 0 .922.401.922.954v16.167l13.943-16.67c.293-.301.486-.452.971-.452h3.389c.533 0 .777.301.777.601 0 .152-.098.301-.195.453l-14.625 17.071 14.676 18.377c.096.152.145.252.145.402-.001.251-.196.402-.438.402zm25.58-12.403h-16.227v.601c0 5.773 2.615 8.437 7.072 8.437 2.809 0 6.053-.354 8.279-.705h.245c.389 0 .773.201.773.705v1.706c0 .654-.193 1.008-.967 1.153-2.76.55-5.088.854-8.332.854-5.568 0-11.332-2.764-11.332-12.399v-3.514c0-7.13 3.826-12.402 10.752-12.402 7.072 0 10.654 5.223 10.654 12.35v2.111c.001.649-.339 1.103-.917 1.103zm-3.393-3.616c0-5.372-2.082-8.083-6.344-8.083-4.164 0-6.49 2.913-6.49 8.083v.252h12.834v-.252zm29.549 16.019h-2.517c-.533 0-.875-.45-.875-1.004v-17.926c0-3.766-.918-5.221-4.213-5.221h-3.438c-3.295 0-4.213 1.455-4.213 5.221v17.926c0 .554-.34 1.004-.875 1.004h-2.518c-.533 0-.871-.45-.871-1.004v-17.926c0-7.733 5.182-9.039 8.475-9.039h3.438c3.295 0 8.477 1.305 8.477 9.039v17.926c.001.553-.335 1.004-.87 1.004zm19.281.05c-.92.152-2.906.301-4.65.301-4.553 0-7.168-1.557-7.168-6.978v-25.91c0-.501.438-.854.969-.955l2.375-.401h.096c.484 0 .822.451.822.953v5.323h7.557c.533 0 .918.351.918.903v1.708c0 .502-.385.902-.918.902h-7.557v17.473c0 2.914.924 3.416 3.586 3.416h3.924c.676 0 1.018.201 1.018.705v1.703c-.003.459-.245.757-.972.857zm39.141-.351c-2.031.403-3.924.654-8.037.654-5.959 0-12.785-3.317-12.785-15.517v-6.979c0-12.301 6.826-15.515 12.785-15.515 3.053 0 6.006.455 8.135.805.436.05.777.201.777.653v2.561c0 .301-.098.552-.582.552h-.145c-1.744-.151-5.328-.451-8.139-.451-4.746 0-8.426 2.862-8.426 11.396v6.979c0 8.436 3.68 11.402 8.426 11.402 2.76 0 6.25-.252 7.994-.403h.193c.531 0 .773.249.773.804v2.059c-.023.597-.455.899-.984 1h.015zm15.842.652c-7.119 0-10.752-4.871-10.752-12.252v-3.818c0-7.378 3.633-12.25 10.752-12.25 7.121 0 10.801 4.871 10.801 12.25v3.818c0 7.381-3.684 12.252-10.801 12.252zm6.541-16.067c0-5.122-1.988-8.384-6.539-8.384-4.504 0-6.49 3.213-6.49 8.384v3.817c0 5.123 1.938 8.385 6.49 8.385 4.504 0 6.539-3.213 6.539-8.385v-3.817zm20.387 16.067h-.438c-3.293 0-9.975-1.908-9.975-11.801v-15.161c0-.553.338-1.006.871-1.006h2.518c.535 0 .873.452.873 1.006v15.162c0 6.025 2.469 7.934 5.715 7.934h.436c3.246 0 5.717-1.908 5.717-7.934v-15.162c0-.553.338-1.006.871-1.006h2.52c.531 0 .869.452.869 1.006v15.162c-.012 9.891-6.695 11.801-9.996 11.801h.019zm36.083-.351h-2.518c-.535 0-.873-.45-.873-1.004v-17.926c0-3.766-.922-5.221-4.217-5.221h-3.438c-3.291 0-4.213 1.455-4.213 5.221v17.926c0 .554-.338 1.004-.871 1.004h-2.52c-.533 0-.871-.45-.871-1.004v-17.926c0-7.733 5.182-9.039 8.475-9.039h3.436c3.297 0 8.479 1.305 8.479 9.039v17.926c.023.554-.312 1.004-.852 1.004h-.017zm19.284.05c-.918.152-2.904.301-4.646.301-4.553 0-7.166-1.557-7.166-6.978v-25.91c0-.501.438-.854.971-.955l2.371-.401h.096c.482 0 .824.451.824.953v5.323h7.553c.533 0 .922.351.922.903v1.708c0 .502-.387.902-.922.902h-7.553v17.473c0 2.914.918 3.416 3.582 3.416h3.924c.676 0 1.018.201 1.018.705v1.703c-.023.459-.264.757-.996.857h.022zm15.984 9.891c-3.58 0-6.875-.551-7.99-.851-.682-.204-.924-.454-.924-1.055v-1.405c0-.501.389-.854.871-.854h.148c1.455.203 5.084.604 7.895.604 4.355 0 5.715-1.104 5.715-6.377v-.25c-1.162.352-3.826.602-5.377.602-5.568 0-10.846-2.006-10.846-10.396v-16.57c0-.553.436-1.006.969-1.006h2.326c.529 0 .965.452.965 1.006v16.568c0 5.375 2.521 6.625 6.588 6.625 1.404 0 3.875-.299 5.281-.652v-22.541c0-.553.436-1.006.969-1.006h2.324c.531 0 .967.452.967 1.006v26.611c-.023 7.885-3.312 9.941-9.898 9.941h.017zm50.137-10.242c-2.033.403-3.922.654-8.039.654-5.957 0-12.787-3.317-12.787-15.517v-6.979c0-12.301 6.83-15.515 12.787-15.515 3.053 0 6.006.455 8.135.805.438.05.775.201.775.653v2.561c0 .301-.096.552-.58.552h-.145c-1.744-.151-5.328-.451-8.135-.451-4.75 0-8.428 2.862-8.428 11.396v6.979c0 8.436 3.682 11.402 8.428 11.402 2.76 0 6.246-.252 7.988-.403h.193c.535 0 .775.249.775.804v2.059c-.023.597-.467.899-.996 1h.029zm15.84.652c-7.121 0-10.752-4.871-10.752-12.252v-3.818c0-7.378 3.629-12.25 10.752-12.25 7.119 0 10.797 4.871 10.797 12.25v3.818c0 7.381-3.684 12.252-10.801 12.252h.004zm6.539-16.067c0-5.122-1.984-8.384-6.539-8.384-4.504 0-6.49 3.213-6.49 8.384v3.817c0 5.123 1.939 8.385 6.49 8.385 4.506 0 6.539-3.213 6.539-8.385v-3.817zm20.4 16.067h-.439c-3.289 0-9.973-1.908-9.973-11.801v-15.161c0-.553.334-1.006.871-1.006h2.518c.529 0 .869.452.869 1.006v15.162c0 6.025 2.471 7.934 5.715 7.934h.439c3.244 0 5.719-1.908 5.719-7.934v-15.162c0-.553.332-1.006.867-1.006h2.518c.535 0 .871.452.871 1.006v15.162c-.01 9.891-6.693 11.801-9.98 11.801h.005zm36.084-.351h-2.521c-.529 0-.871-.45-.871-1.004v-17.926c0-3.766-.92-5.221-4.215-5.221h-3.438c-3.295 0-4.213 1.455-4.213 5.221v17.926c0 .554-.34 1.004-.875 1.004h-2.518c-.531 0-.873-.45-.873-1.004v-17.926c0-7.733 5.186-9.039 8.475-9.039h3.447c3.289 0 8.475 1.305 8.475 9.039v17.926c.01.554-.324 1.004-.854 1.004h-.019zm22.955-.201c-1.598.301-3.779.552-6.055.552-6.584 0-10.318-4.82-10.318-12.204v-3.916c0-7.378 3.682-12.2 10.318-12.2 2.229 0 4.457.25 6.055.551.773.15.969.403.969 1.104v1.808c0 .502-.389.752-.822.752h-.193c-2.133-.25-3.633-.35-6.008-.35-3.873 0-6.055 2.662-6.055 8.334v3.917c0 5.626 2.129 8.337 6.055 8.337 2.375 0 3.875-.1 6.008-.351h.193c.436 0 .822.251.822.751v1.811c.012.654-.182.957-.959 1.104h-.01zm10.322-31.833h-2.471c-.533 0-.975-.453-.975-1.003v-4.019c0-.551.441-1.003.975-1.003h2.471c.531 0 .967.452.967 1.003v4.018c0 .553-.43 1.004-.971 1.004h.004zm-.097 32.034h-2.324c-.531 0-.971-.45-.971-1.004v-25.607c0-.553.436-1.006.971-1.006h2.324c.533 0 .971.452.971 1.006v25.607c0 .554-.434 1.004-.973 1.004h.002zm12.011 0h-2.521c-.482 0-.871-.45-.871-1.004v-35.801c0-.5.34-.951.871-.951h2.521c.482 0 .871.399.871.951v35.801c0 .5-.336 1.004-.875 1.004h.004z" enable-background="new" fill="#fff"/></svg>