<svg xmlns="http://www.w3.org/2000/svg" width="81.066" height="38" viewBox="0 0 81.066 38"><path d="M24.355 37.646h-4.092c-.463 0-.818-.15-1.125-.502l-14.482-17.37v16.868c0 .502-.357 1.004-.918 1.004h-2.815c-.513 0-.923-.451-.923-1.004v-35.338c0-.503.41-.955.975-.955h2.711c.512 0 .973.401.973.955v16.165l14.734-16.67c.307-.299.512-.45 1.023-.45h3.582c.562 0 .82.302.82.602 0 .152-.104.302-.207.452l-15.453 17.068 15.506 18.371c.1.154.152.256.152.404.002.25-.203.4-.461.4zm27.795-.299c-2.15.403-4.148.653-8.496.653-6.295 0-13.51-3.314-13.51-15.512v-6.977c.001-12.3 7.215-15.511 13.51-15.511 3.221 0 6.346.453 8.592.804.465.049.82.202.82.653v2.56c0 .302-.102.553-.613.553h-.154c-1.84-.15-5.625-.451-8.598-.451-5.01 0-8.898 2.861-8.898 11.395v6.979c0 8.434 3.889 11.398 8.898 11.398 2.918 0 6.605-.252 8.449-.404h.205c.559 0 .816.25.816.803v2.059c.001.594-.46.895-1.021.998zm27.891 0c-2.146.403-4.146.653-8.494.653-6.295 0-13.51-3.314-13.51-15.512v-6.977c0-12.3 7.215-15.511 13.51-15.511 3.225 0 6.348.453 8.598.804.461.049.818.202.818.653v2.56c0 .302-.102.553-.611.553h-.158c-1.844-.15-5.627-.451-8.592-.451-5.016 0-8.904 2.861-8.904 11.395v6.979c0 8.434 3.891 11.398 8.904 11.398 2.916 0 6.6-.252 8.439-.404h.207c.562 0 .818.25.818.803v2.059c0 .594-.461.895-1.025.998z" enable-background="new" fill="#fff"/></svg>