<?xml version="1.0" encoding="utf-8"?>
<!-- Generator: Adobe Illustrator 16.0.0, SVG Export Plug-In . SVG Version: 6.00 Build 0)  -->
<!DOCTYPE svg PUBLIC "-//W3C//DTD SVG 1.1//EN" "http://www.w3.org/Graphics/SVG/1.1/DTD/svg11.dtd">
<svg version="1.1" id="Layer_1" xmlns="http://www.w3.org/2000/svg" xmlns:xlink="http://www.w3.org/1999/xlink" x="0px" y="0px"
	 width="528.961px" height="522.998px" viewBox="0 0 528.961 522.998" enable-background="new 0 0 528.961 522.998"
	 xml:space="preserve">
<path opacity="0.3" fill="#B6D562" d="M112.25,522.998h3.507C114.811,522.497,113.61,522.518,112.25,522.998z M409.888,456.937
	c-0.401,0.41-0.79,0.789-1.187,1.188C409.48,457.419,409.888,456.937,409.888,456.937z M449.722,280.45
	c-34.014,41.467,0.159,88.024-50.844,104.834c3.492-2.336,6.449-4.785,8.823-7.346c19.711-21.248,15.771-42.869,15.521-45.26
	c0.143,2.037,1.152,20.305-16.684,39.535c-22.63,24.393-73.811,28.588-116.228,29.012c-3.817-2.172-7.446-4.059-10.604-5.418
	c-17.25-7.418-20.538-11.293-20.538-11.293c10.262-9.291,43.523-53.467,59.104-77.881c4.814-3.726,18.578-14.765,28.354-26.466
	c9.317-11.145,18.779-25.97,21.448-30.54c12.189-20.884,6.254-24.157,6.254-24.157s7.711-3.666,10.721-20.005
	c3.014-16.33-4.989-22.347-4.989-22.347s4.211-5.447,2.423-22.619c-1.773-17.174-12.32-21.438-12.32-21.438
	s0.591-7.205-6.741-21.412c-7.336-14.204-18.677-15.736-18.677-15.736s0.465-6.666-10.341-18.931
	c-10.798-12.269-15.341-7.927-32.031-35.744C285.684,19.433,294.304,0,294.304,0s-36.875,52.075-27.784,134.571
	c8.235,74.706,85.509,88.587,61.138,151.864c2.396-15.854-6.622-32.104-5.988-32.952c-2.634-3.162,0.479,21.37-1.256,35.001
	c-1.733,13.631-19.719,32.314-35.163,53.064c-17.411,23.385-36.902,33.602-46.621,37.531c-1.825-0.438-3.757-0.891-5.81-1.346
	c-8.5-1.9-18.937-3.992-31.142-5.342c-12.2-1.25-26.23-1.863-41.455,0.156c-1.903,0.182-3.81,0.559-5.74,0.883
	c-0.125,0.021-0.251,0.045-0.378,0.066c1.244-1.461,2.485-3.041,3.796-4.658c0.96-1.184,1.8-2.508,2.739-3.809
	c0.901-1.322,1.901-2.613,2.711-4.061c1.716-2.848,3.521-5.752,4.97-8.916c0.747-1.568,1.622-3.084,2.26-4.723l1.939-4.904
	l0.964-2.445l0.743-2.525c0.489-1.678,0.979-3.342,1.465-5.002c0.931-3.312,1.379-6.697,2.048-9.887
	c0.553-3.221,0.657-6.402,0.986-9.363c0.159-1.484,0.267-2.928,0.197-4.342c-0.01-1.406-0.025-2.756-0.039-4.059
	c-0.078-2.599,0.088-4.982-0.254-7.075c-0.231-2.097-0.433-3.92-0.6-5.426c-0.329-2.994-0.521-4.712-0.521-4.712
	s0.069,1.725,0.194,4.744c0.059,1.502,0.13,3.325,0.22,5.421c0.191,2.089-0.137,4.453-0.237,7.02
	c-0.076,1.279-0.163,2.617-0.244,4.004c-0.029,1.381-0.226,2.799-0.492,4.248c-0.528,2.895-0.842,5.979-1.598,9.082
	c-0.882,3.076-1.532,6.309-2.657,9.453c-0.58,1.57-1.166,3.145-1.753,4.727l-0.879,2.373l-1.097,2.293l-2.184,4.568
	c-0.713,1.518-1.657,2.91-2.469,4.354c-1.587,2.916-3.513,5.559-5.312,8.137c-0.863,1.322-1.899,2.482-2.837,3.666
	c-0.973,1.156-1.846,2.354-2.829,3.408c-1.967,2.105-3.76,4.139-5.616,5.826c-1.768,1.773-3.532,3.242-5.061,4.555
	c-0.35,0.287-0.656,0.527-0.989,0.793c-1.517,0.414-3.024,0.811-4.638,1.305c-7.98,2.375-15.826,5.291-23.758,9.01
	c-15.815,7.322-31.127,18.131-44.323,31.641c-1.061,1.086-2.085,2.213-3.119,3.328c9.88-18.613,16.961-42.596,5.467-63.756
	c0,0,27.552-76.793-71.298-95.408c0,0,76.024,71.238,63.86,150.658c-0.803,5.238-1.718,9.789-2.704,13.75
	c-9.876,11.514-18.555,24.344-26.277,37.764c-4.875,8.43-9.413,17.09-13.75,25.865l-1.647,3.367
	c-0.503,1.131-1.028,2.164-1.519,3.373c-1.032,2.393-1.932,4.721-2.808,7.053c-1.723,4.67-3.249,9.365-4.719,14.068
	c-0.483,1.57-0.948,3.145-1.417,4.717h8.059c0.256-0.767,0.504-1.536,0.763-2.301c0.792-2.299,1.596-4.588,2.426-6.859
	c21.975-30.523,45.365-53.477,66.922-44.104c17.686,20.089,6.127,34.352-1.864,53.264h23.818c0.796-0.533,1.737-1.216,3.342-2.73
	c4.488-4.246,3.661-5.199,4.135-8.525c0.475-3.307-4.537-16.043-5.515-18.385c-0.98-2.336-3.475-3.393-3.904-2.227
	c-0.432,1.164,0.132,4.848-2.728,11.764c-2.852,6.904-6.404,10.918-6.404,10.918s1.848-2.65,3.697-7.205
	c1.846-4.543,5.736-15.486,2.478-22.615c-0.97-2.117-2.84-4.453-4.977-6.691c0.177-0.367,0.36-0.732,0.555-1.094
	c4.79,4.416,7.611,8.254,8.257,9.178c1.078,1.543,10.598,8.797,9.582,8.271c-1.016-0.537-4.202-2.314-6.473-4.307
	c-2.282-1.998-0.282,1.051,0.25,2.346c0.528,1.289,3.354,5.967,7.336,11.164c3.982,5.197,8.236,9.873,8.236,9.873
	s-5.178-4.768-7.05-6.705c-1.864-1.928-1.854,0.064-2,0.656c-0.154,0.57,2.243,11.514,3.812,16.15
	c0.018,0.052,0.042,0.111,0.061,0.164h11.07c-1.388-4.266-2.963-5.463-2.963-5.463s3.161-4.051-0.523-11.736
	c-3.678-7.691-7.991-8.473-7.991-8.473s2.503-2.416-6.332-11.127c-1.936-1.906-8.607-7.984-14.715-12.254
	c-7.891-5.52-18.634-9.734-18.634-9.734c0.223,0.203,0.425,0.402,0.642,0.604c-19.271-6.363-38.774,10.619-51.449,25.492
	c3.824-7.156,7.774-14.188,11.938-21c6.077-10.021,12.646-19.57,19.769-28.332c3.112-1.723,7.511-4.053,12.963-6.465
	c5.653-2.512,12.388-5.182,19.818-7.406c3.702-1.16,7.587-2.129,11.556-3.039c3.982-0.852,8.061-1.605,12.169-2.104
	c4.107-0.539,8.246-0.861,12.324-0.957c4.081-0.135,8.102,0.018,11.988,0.311c1.939,0.141,3.837,0.42,5.707,0.617
	c1.859,0.248,3.658,0.615,5.428,0.904c3.504,0.723,6.811,1.494,9.795,2.453c3.026,0.811,5.665,1.975,8.072,2.816
	c2.322,1.047,4.392,1.9,6.036,2.707c3.257,1.707,5.116,2.676,5.116,2.676s-1.808-1.08-4.965-2.965
	c-1.6-0.91-3.615-1.883-5.897-3.068c-2.369-0.986-4.971-2.309-7.984-3.311c-2.958-1.137-6.265-2.107-9.781-3.047
	c-1.776-0.396-3.594-0.873-5.471-1.236c-1.89-0.312-3.816-0.713-5.788-0.967c-3.948-0.52-8.061-0.914-12.248-1.023
	c-4.188-0.139-8.458-0.047-12.709,0.258c-4.253,0.279-8.488,0.809-12.641,1.457c-4.137,0.697-8.211,1.467-12.088,2.443
	c-7.381,1.762-14.14,3.965-19.937,6.117c0.786-0.801,1.56-1.619,2.358-2.4c12.683-12.361,26.975-21.924,41.752-28.354
	c7.332-3.24,14.886-5.826,22.073-7.783c1.792-0.52,3.779-0.963,5.63-1.443c1.697-0.424,3.572-0.738,5.313-1.111
	c1.77-0.402,3.544-0.652,5.305-0.898c1.758-0.254,3.489-0.561,5.235-0.678c13.877-1.506,26.841-0.646,38.234,0.807
	c11.404,1.541,21.293,3.766,29.402,5.783c8.12,2.018,14.446,3.922,18.735,5.172c4.374,1.332,6.708,2.055,6.708,2.055l0.052-0.176
	c23.869,7.451,58.711,26.994,58.711,26.994l11.159,8.002c0,0,15.207,14.07,29.262,28.564c0.515,7.959,4.678,16.461,13.544,18.082
	c3.315,18.294,0.787,31.549-5.306,42.236h19.089c0.404-1.46,0.687-2.931,0.817-4.406c0.732-8.301-2.912-20.736-6.369-30.324
	c0.88-1.07-0.903-4.295-2.548-7.4c0.179-0.021,0.357-0.043,0.541-0.068c9.758,18.866,12.622,36.28,13.353,42.199h8.158
	c-2.496-7.302-6.092-16.933-9.993-25.152c-2.837-5.979-6.432-12.023-9.897-17.346c8.302-1.783,19.258-8.285,33.272-22.375
	c-4.08,3.697-18.482,13.627-39.405-6.352c-6.473-6.182-11.24-4.287-13.618,0.721c-8.598-9.959-18.187-18.727-27.487-26.15
	c0,0-11.086-8.203-23.697-16.406c39.519-3.363,70.052-10.951,88.883-21.32c5.492,0.645,14.943,1.473,23.38,0.814
	c9.922-0.773,21.717-3.236,25.234-4.119c16.07-4.029,14.831-8.508,14.831-8.508s5.49,2.023,14.936-4.328
	c9.446-6.344,8.559-13.148,8.559-13.148s4.687-0.543,12.244-9.646c7.564-9.092,4.603-16.303,4.603-16.303s3.812-3.16,7.262-13.557
	c3.445-10.398-1.237-16.689-1.237-16.689s3.492-2.964,4.323-14.135c0.838-11.166-3.464-11.312,2.17-32.812
	c5.631-21.494,19.281-26.576,19.281-26.576S485.787,236.482,449.722,280.45z M348.78,259.297
	c2.508-15.06-10.381-33.672-16.163-41.28c-5.798-7.63-10.626-11.676-10.626-11.676s8.731,5.744,17.604,17.283
	c8.897,11.558,9.713,18.773,11.12,20.743c1.397,1.976,5.559-1.282,6.206-6.18c0.648-4.9,3.6-31.408,1.021-37.387
	c-2.583-6.018-1.51-8.228-12.117-13.938c-10.596-5.689-8.188-1.781-21.334-10.538c-13.157-8.759-32.873-33.877-32.873-33.877
	s23.604,24.495,27.936,27.387c4.352,2.877,7.955,6.192,15.686,9.576c7.763,3.392,13.904,3.417,16.358-0.576
	c2.455-4.01-3.72-20.731-10.054-28.605c-6.341-7.872-10.106-6.112-19.058-11.643c-8.931-5.527-16.975-12.246-25.678-26.598
	c-8.694-14.35-12.139-21.23-12.139-21.23s13.012,22.118,22.115,30.691c9.104,8.555,19.1,15.633,23.344,16.793
	c4.232,1.153,6.792,2.338,5.774,0.407c-1.007-1.916-25.834-39.519-32.286-57.38c-6.462-17.86-8.616-30.811-10.649-42.82
	c-2.022-12.006-0.142-15.77-0.142-15.77s-0.3,5.644,4.488,29.95c4.788,24.317,24.006,55.461,24.006,55.461
	s15.14,27.064,18.983,27.858c3.855,0.796,0.242-4.423,1.185-14.442c0.931-10.014,2.946-9.607,2.946-9.607
	s-2.951,22.811,2.505,33.753c5.459,10.955,8.536,18.131,9.686,21.72c1.161,3.581,2.054,8.031,3.808,4
	c1.761-4.058,3.07-13.386,4.526-17.431c1.433-4.048,3.265-5.863,3.265-5.863s-5.63,19.725-6.229,29.233
	c-0.593,9.519,0.465,31.325,1.049,32.32c0.572,1.038,1.566,4.791,4.095,0.215c2.534-4.597,9.853-16.196,9.853-16.196
	s-5.627,10.959-10.477,22.762c-4.84,11.802-7.777,22.041-8.119,24.736c-0.339,2.703-2.549,9.455,0.722,4.54
	c3.263-4.907,8.353-9.871,9.99-11.395c1.638-1.506-12.574,16.984-13.818,20.433c-1.246,3.444-9.667,25.153-29.21,44.448
	C326.08,299.176,346.271,274.347,348.78,259.297z M97.977,474.564c-0.883-0.279-1.729-0.686-2.432-1.373
	c-1.49-1.463-2.993-2.725-4.504-3.834C93.633,471.052,95.952,472.828,97.977,474.564z M504.619,256.292
	c-9.621,13.991-15.677,38.324-15.677,38.324s-6.008,20.379-4.558,22.643c1.458,2.271,2.284-2.002,7.645-6.336
	c5.352-4.34,6.117-3.156,6.117-3.156s-12.59,9.477-15.335,17.393c-2.754,7.92-4.797,12.865-6.003,15.146
	c-1.198,2.285-2.952,4.852-0.136,3.781c2.83-1.082,8.029-4.908,10.707-6.131c2.67-1.236,4.437-1.205,4.437-1.205
	s-12.36,6.686-17.305,10.947c-4.947,4.268-15.127,15.23-15.335,15.994c-0.234,0.775-1.597,3.064,1.855,2.109
	c3.465-0.959,12.656-2.932,12.656-2.932s-8.066,2.492-16.17,5.771c-8.103,3.279-14.526,6.746-16.01,7.869
	c-1.487,1.127-5.854,3.279-1.879,2.527c3.969-0.75,8.835-0.637,10.369-0.564c1.522,0.082-14.345,1.975-16.631,3.02
	c-2.283,1.037-16.953,7.309-35.768,6.975c0,0,21.836-2,30.413-7.979c8.578-5.982,11.524-21.213,12.482-27.691
	c0.962-6.494,0.631-10.797,0.631-10.797s1.369,7.029-0.034,16.902c-1.402,9.896-4.548,13.75-4.839,15.385
	c-0.3,1.629,3.291,2.107,6,0.08c2.712-2.029,17.111-13.279,18.807-17.408c1.712-4.145,3.307-4.678,1.027-12.611
	c-2.289-7.916-3.05-4.863-5.057-15.498c-2.012-10.641,0.853-32.332,0.853-32.332s-0.696,23.296-0.038,26.804
	c0.674,3.508,0.776,6.863,2.819,12.271c2.058,5.426,4.987,8.447,8.119,7.738c3.141-0.719,8.378-11.752,9.201-18.627
	c0.817-6.877-1.848-7.879-3.427-14.914c-1.568-7.023-2.128-14.18,0.735-25.318c2.866-11.134,4.587-16.117,4.587-16.117
	s-4.604,16.969-4.445,25.534c0.168,8.56,1.488,16.846,2.955,19.481c1.461,2.625,2.107,4.449,2.564,3.025
	c0.458-1.41,6.987-31.586,12.649-43.302c5.655-11.721,10.968-18.978,15.88-25.725c4.913-6.743,7.656-7.625,7.656-7.625
	S514.234,242.303,504.619,256.292z"/>
</svg>
