<svg xmlns="http://www.w3.org/2000/svg" width="36" height="36" viewBox="0 0 36 36"><path fill="#1E4451" d="M12 16h24v4h-24z"/><path fill="#BC4535" d="M0 13h9v10h-9zm5 0h4v10h-4z"/><path opacity=".3" d="M12 16h4v4h-4z"/><path fill="#1E4451" d="M12 3h24v4h-24z"/><path fill="#BC4535" d="M0 0h9v9h-9zm5 0h4v9h-4z"/><path opacity=".3" d="M12 3h4v4h-4z"/><path fill="#1E4451" d="M12 29h24v4h-24z"/><path fill="#BC4535" d="M0 27h9v9h-9zm5 0h4v9h-4z"/><path opacity=".3" d="M12 29h4v4h-4zm4 3h20v1h-20zm0-13h20v1h-20zm0-13h20v1h-20z"/></svg>