<svg xmlns="http://www.w3.org/2000/svg" width="36" height="36" viewBox="0 0 36 36"><defs><filter id="a" filterUnits="userSpaceOnUse" x="0" y="0" width="36" height="36"><feColorMatrix values="1 0 0 0 0 0 1 0 0 0 0 0 1 0 0 0 0 0 1 0"/></filter></defs><mask maskUnits="userSpaceOnUse" x="0" y="0" width="36" height="36" id="b"><path fill="#fff" d="M36 33c0 1.657-1.343 3-3 3h-30c-1.656 0-3-1.343-3-3v-30c0-1.657 1.344-3 3-3h30c1.657 0 3 1.343 3 3v30z" filter="url(#a)"/></mask><g mask="url(#b)"><path fill="#1E4451" d="M32.584 26h-32.584v9.205c0 .262.426.795.686.795h34.519c.26 0 .795-.533.795-.795v-9.205h-3.416z"/><path fill="#BDEEFF" d="M8.902 32.58l8.979 2.739 9.11-2.739 9.009 2.69v-34.742c0-.26-.535-.528-.796-.528h-34.518c-.26 0-.686.268-.686.528v34.73l8.902-2.678z"/><path fill="#A6EAA4" d="M20.294 34.648l-15.301-20.446-4.993 3.494v17.563l8.902-2.679 9.031 2.764zm2.941-34.648h-22.549c-.26 0-.686.268-.686.528v17.007l7.922-5.983 15.313-11.552z"/><path fill="#fff" d="M27.949 9.853l-.07-.022-1.173-1.522-.045.016-4.503-6.231 2.681-2.094h-3.146l-17.91 13.541-.045.065-.066.017-3.672 2.729v2.367l4.786-3.549 14.416 19.812 1.906-.603-4.833-6.728 6.557-4.618 7.662 10.52 3.013.92-4.562-6.268 6.595-4.716.46.355v-3.213l-8.051-10.778zm-7.314-6.556l4.478 6.149-6.396 4.716-4.434-6.087 6.352-4.778zm-5.465 22.825l-8.805-12.09 6.406-4.819 8.951 12.29-6.552 4.619zm4.66-10.43l6.396-4.717 3.538 4.858-6.496 4.58-3.438-4.721zm8.001 10.985l-3.448-4.734 6.495-4.58 3.349 4.597-6.396 4.717z"/><path fill="#aaa" d="M26.35 26.699l-2.906-18.699h5.441z"/><path fill="#1E4451" d="M24.027 12.987c.171.572 2.308 1.208 2.756 1.114l-.433 12.377 1.829-13.306-4.152-.185z" opacity=".2"/><circle fill="#BC4535" cx="26.226" cy="7.891" r="5.406"/><path fill="#fff" d="M26.227 13.575c-3.134 0-5.686-2.55-5.686-5.685s2.552-5.684 5.686-5.684c3.133 0 5.685 2.549 5.685 5.684-.001 3.135-2.553 5.685-5.685 5.685zm0-10.811c-2.827 0-5.126 2.301-5.126 5.127 0 2.827 2.299 5.127 5.126 5.127 2.826 0 5.126-2.3 5.126-5.127s-2.3-5.127-5.126-5.127z"/><path fill="#1E4451" d="M17 0h-8v32.584l-.404-.004 8.404 2.701zm18.204 0h-8.204v32.592l.122-.012 8.878 2.69v-34.742c0-.26-.535-.528-.796-.528z" opacity=".2"/></g></svg>