<?xml version="1.0" encoding="utf-8"?>
<!-- Generator: Adobe Illustrator 18.1.1, SVG Export Plug-In . SVG Version: 6.00 Build 0)  -->
<svg version="1.1" id="Layer_1" xmlns="http://www.w3.org/2000/svg" xmlns:xlink="http://www.w3.org/1999/xlink" x="0px" y="0px"
	 width="280px" height="240px" viewBox="0 0 280 240" enable-background="new 0 0 280 240" xml:space="preserve">
<g>
	<path d="M4.2,49l42.5,165.1c1.9,7.4,6.2,14.2,11.7,18.7c6.2,4.9,13.5,6.7,20.7,4.9l178.2-45.9c0.2,0,0.3-0.2,0.5-0.2
		c0.6-0.1,1.1-0.2,1.7-0.3l0,0c14.6-3.8,24.1-19.9,20.3-34.5l-28.9-112c-0.3-1.4-1.8-2-3.1-1.7L201.5,55L187.9,2.2
		c-0.4-1.6-2.1-2.6-3.8-2.1C183.7,0.2,6,45.9,6,45.9C4.7,46.2,3.8,47.7,4.2,49z M254.6,187.1c-10.3,0.9-19.4-4.7-22.8-16.2l20-5.2
		c2.7-0.7,4.1-4.4,3.5-7l-1.1-4.4c-0.7-2.6-3.3-3.3-5.9-2.6l-20.6,5.3l-2.4-9.3l32.1-8.3c2.7-0.7,4.2-4.6,3.5-7.3l-1-4
		c-0.7-2.7-3.3-3.3-6-2.6l-32.1,8.3l-3-11.6l32.1-8.3c2.8-0.7,4.5-3.9,3.7-6.7l-1-3.9c-0.7-2.7-4.1-6.4-6.9-5.6l-32.1,8.3l-3-11.6
		l32.6-8.4c2.4-0.6,4.6-1.2,3.9-3.7l-1.2-4.8c-0.6-2.4-3.7-6-6.2-5.3L208,80.6l-5.4-20.9l44.2-11.4L275,158c3,11.8-4.9,25-16.7,28.1
		c-0.4,0.1-1,0.2-1.4,0.3c-0.3,0-0.7,0-1,0.1C255.4,186.6,255.2,187.2,254.6,187.1z M9.4,50L182.6,5.3c0.1,0,1.2,0.2,1.2,0.3
		l41.9,162.7c2.3,9.1,7.8,17.2,16.4,22.4L77.9,233.1c-9.6,2.5-22.6-4.7-26.6-20.1L9.4,50z"/>
	<path d="M115.9,40.1l13.7,53.2c0.7,2.7,3.5,4.3,6.1,3.6l53.2-13.7c2.7-0.7,4.3-3.5,3.6-6.1l-13.7-53.2c-0.7-2.7-3.5-4.3-6.1-3.6
		L119.5,34C116.7,34.7,115.2,37.5,115.9,40.1L115.9,40.1z"/>
	<path d="M32.3,91c0.7,2.6,3.4,4.2,6,3.5l67.2-17.3c2.6-0.7,4.2-3.4,3.5-6l-1.1-4.5c-0.7-2.6-3.4-4.2-6-3.5L34.7,80.6
		c-2.6,0.7-4.2,3.4-3.5,6L32.3,91z"/>
	<path d="M26.3,67.5c0.7,2.7,3.4,4.4,6.2,3.7L99.2,54c2.7-0.7,4.4-3.4,3.7-6.2l-1-4c-0.7-2.7-3.4-4.4-6.2-3.7L28.9,57.3
		c-2.7,0.7-4.4,3.4-3.7,6.2L26.3,67.5z"/>
	<path d="M37.9,112.2l1.1,4.2c0.7,2.7,3.4,4.3,6.1,3.6l66.9-17.2c2.7-0.7,4.3-3.4,3.6-6.1l-1.1-4.2c-0.7-2.7-3.4-4.3-6.1-3.6
		l-67,17.3C38.7,106.9,37.1,109.5,37.9,112.2L37.9,112.2z"/>
	<path d="M51.6,165.9l0.9,4c0.7,2.8,3.5,4.5,6.3,3.7l143.4-37c2.8-0.7,4.5-3.5,3.7-6.3l-1-4c-0.7-2.8-3.5-4.5-6.3-3.7L55.4,159.6
		C52.6,160.3,50.9,163.1,51.6,165.9L51.6,165.9z"/>
	<path d="M44.4,137.4l1.3,4.9c0.6,2.4,3.1,4,5.6,3.3l144.4-37.2c2.4-0.6,4-3.1,3.3-5.6l-1.3-4.9c-0.6-2.4-3.1-4-5.6-3.3L47.6,131.8
		C45.2,132.4,43.6,134.9,44.4,137.4L44.4,137.4z"/>
	<path d="M57.6,189l1,4.1c0.7,2.7,3.5,4.4,6.2,3.7l143.5-37c2.7-0.7,4.4-3.5,3.7-6.2l-1-4.1c-0.7-2.7-3.5-4.4-6.2-3.7l-143.5,37
		C58.5,183.5,56.9,186.3,57.6,189L57.6,189z"/>
	<path d="M140.2,192.4l1.1,4.5c0.7,2.7,3.5,4.3,6.1,3.6l67.2-17.3c2.7-0.7,4.3-3.5,3.6-6.1l-1.1-4.5c-0.7-2.7-3.5-4.3-6.1-3.6
		l-67.1,17.3C141.1,187,139.6,189.8,140.2,192.4L140.2,192.4z"/>
</g>
</svg>
