<svg xmlns="http://www.w3.org/2000/svg" width="36" height="36" viewBox="0 0 36 36"><path fill="#1E4451" d="M35.958 17.958c0-5.977-2.914-11.465-7.836-14.834l-5.137 8.179c2.093 1.574 3.32 4.009 3.32 6.655 0 2.945-1.584 5.683-4.096 7.174l4.121 8.738c5.875-3.097 9.628-9.259 9.628-15.912z"/><path fill="#1E4451" d="M28.637 6.064c3.363 3.013 5.321 7.326 5.321 11.894 0 5.148-2.602 10.065-6.771 13.04l-2.464-5.224c2.244-1.948 3.582-4.807 3.582-7.816 0-2.647-.979-5.119-2.736-7.009l3.068-4.885m-.515-2.94l-5.137 8.179c2.093 1.574 3.32 4.009 3.32 6.655 0 2.945-1.584 5.683-4.096 7.174l4.121 8.738c5.874-3.098 9.627-9.26 9.627-15.913.001-5.976-2.913-11.464-7.835-14.833z" opacity=".2"/><path fill="#BC4535" d="M17.958 9.611c1.283 0 2.546.298 3.695.87l5.141-8.185c-2.706-1.531-5.743-2.337-8.835-2.337-.415 0-.843.017-1.294.053l1.113 9.602.18-.003z"/><path fill="#BC4535" d="M18.906 1.987c1.715.104 3.407.489 5.007 1.135l-3.078 4.901c-.414-.121-.836-.215-1.262-.283l-.667-5.753m-.948-2.029c-.415 0-.843.017-1.294.053l1.113 9.602.182-.002c1.283 0 2.546.298 3.695.87l5.141-8.185c-2.707-1.531-5.744-2.338-8.837-2.338z" opacity=".2"/><path fill="#1D8197" d="M17.958 26.306c-4.604 0-8.348-3.744-8.348-8.347 0-3.978 2.792-7.358 6.612-8.164l-1.112-9.602c-8.692 1.377-15.152 8.88-15.152 17.765 0 9.924 8.074 18 18 18 2.395 0 4.733-.477 6.958-1.417l-4.123-8.737c-.912.335-1.863.502-2.835.502z"/><path fill="#1D8197" d="M13.379 2.628l.667 5.752c-3.817 1.564-6.435 5.341-6.435 9.578 0 5.706 4.642 10.347 10.348 10.347.585 0 1.165-.049 1.735-.146l2.468 5.229c-1.369.379-2.776.57-4.203.57-8.823 0-16-7.178-16-16-.001-7.203 4.692-13.353 11.42-15.33m1.731-2.435c-8.692 1.377-15.152 8.88-15.152 17.765 0 9.924 8.074 18 18 18 2.395 0 4.733-.477 6.958-1.417l-4.123-8.737c-.913.335-1.864.502-2.835.502-4.604 0-8.348-3.744-8.348-8.347 0-3.978 2.792-7.358 6.612-8.164l-1.112-9.602z" opacity=".2"/></svg>