<svg xmlns="http://www.w3.org/2000/svg" width="20" height="20" viewBox="0 0 20 20"><path fill="#ddd" d="M10 1c4.963 0 9 4.038 9 9 0 4.963-4.037 9-9 9-4.962 0-9-4.037-9-9 0-4.962 4.038-9 9-9m0-1c-5.523 0-10 4.478-10 10 0 5.523 4.477 10 10 10 5.521 0 10-4.477 10-10 0-5.522-4.479-10-10-10z"/><circle fill="#1D8197" cx="10.001" cy="10.001" r="9.012"/><path fill="#156E85" d="M10 2.719c4.015 0 7.281 3.267 7.281 7.281s-3.266 7.281-7.281 7.281-7.281-3.266-7.281-7.281 3.266-7.281 7.281-7.281m0-1.781c-5.005 0-9.062 4.058-9.062 9.062 0 5.006 4.057 9.062 9.062 9.062 5.004 0 9.062-4.057 9.062-9.062 0-5.004-4.058-9.062-9.062-9.062z"/></svg>