<?xml version="1.0" encoding="utf-8"?>
<!-- Generator: Adobe Illustrator 18.1.1, SVG Export Plug-In . SVG Version: 6.00 Build 0)  -->
<svg version="1.1" id="Layer_1" xmlns="http://www.w3.org/2000/svg" xmlns:xlink="http://www.w3.org/1999/xlink" x="0px" y="0px"
	 width="16.4px" height="11px" viewBox="0 0 16.4 11" enable-background="new 0 0 16.4 11" xml:space="preserve">
<path fill="#2D8EA3" d="M7.9,8.3v2.1c0,0.5-0.6,0.8-1,0.5L0.2,6c-0.3-0.2-0.3-0.7,0-1l6.7-4.9c0.4-0.3,1,0,1,0.5V3
	c0,0.3,0.3,0.6,0.6,0.6c0,0,4.4-0.9,6.5,1.4c1.9,2.1,1.5,6,1,6c0,0-1.4-1.9-3-3c-1.3-0.9-4.5-0.3-4.5-0.3C8.1,7.7,7.9,8,7.9,8.3z"/>
</svg>
