<?xml version="1.0" encoding="utf-8"?>
<!-- Generator: Adobe Illustrator 18.1.1, SVG Export Plug-In . SVG Version: 6.00 Build 0)  -->
<svg version="1.1" id="Layer_1" xmlns="http://www.w3.org/2000/svg" xmlns:xlink="http://www.w3.org/1999/xlink" x="0px" y="0px"
	 width="19.6px" height="11.3px" viewBox="0 0 19.6 11.3" enable-background="new 0 0 19.6 11.3" xml:space="preserve">
<g>
	<path fill="#2D8EA3" d="M17.7,6.5c-0.2,0-0.4-0.2-0.4-0.4V3V1.6c0-0.7-0.5-1.2-1.2-1.2h-1.5h-5C9.3,0.3,9,0.6,9,0.9v1.6
		C9,2.8,9.3,3,9.6,3h4.6c0.2,0,0.4,0.2,0.4,0.4v2.7c0,0.2-0.2,0.4-0.4,0.4h-1.5c-0.3,0-0.5,0.4-0.3,0.6l3.3,3.9
		c0.2,0.2,0.4,0.2,0.6,0l3.2-3.9c0.2-0.3,0-0.6-0.3-0.6H17.7z"/>
	<path fill="#2D8EA3" d="M5.4,5.1h1.4c0.3,0,0.5-0.4,0.3-0.6L3.9,0.2c-0.2-0.2-0.5-0.2-0.6,0L0.1,4.5c-0.2,0.3,0,0.6,0.3,0.6h1.5
		c0.2,0,0.4,0.2,0.4,0.4v3.1v1.3c0,0.8,0.6,1.4,1.4,1.4H5h5c0.3,0,0.6-0.2,0.6-0.6V9.2c0-0.3-0.2-0.6-0.6-0.6H5.4
		C5.2,8.6,5,8.5,5,8.2V5.5C5,5.3,5.2,5.1,5.4,5.1z"/>
</g>
</svg>
