<svg xmlns="http://www.w3.org/2000/svg" width="42" height="42" viewBox="0 0 42 42"><path fill="#fff" d="M42 39c0 1.656-1.343 3-3 3h-36c-1.657 0-3-1.344-3-3v-36c0-1.657 1.343-3 3-3h36c1.657 0 3 1.343 3 3v36z"/><path d="M34.42 26.24c-.869 0-1.58.699-1.58 1.561 0 .867.71 1.562 1.58 1.562.873 0 1.578-.695 1.578-1.562 0-.863-.705-1.561-1.578-1.561zm-12.264-17.962c-5.853 0-10.613 4.712-10.613 10.51 0 2.578.945 4.939 2.508 6.769l-7.178 7.111c-.517.51-.517 1.338 0 1.85.259.258.598.387.936.387s.677-.125.934-.387l7.257-7.186c1.738 1.232 3.861 1.967 6.158 1.967 5.853 0 10.612-4.717 10.612-10.511-.001-5.799-4.76-10.51-10.614-10.51zm0 18.404c-4.396 0-7.971-3.539-7.971-7.892 0-4.354 3.575-7.896 7.971-7.896 4.394 0 7.969 3.54 7.972 7.896 0 4.353-3.576 7.892-7.972 7.892z" fill="#910766"/></svg>