<svg xmlns="http://www.w3.org/2000/svg" width="39.844" height="39.845" viewBox="0 0 39.844 39.845"><path fill="#fff" d="M3.968 16.965c-2.126.778-3.422 2.256-3.891 4.436-.05-.312-.077-.804-.077-1.479 0-5.188 1.79-9.701 5.37-13.541 3.943-4.254 8.793-6.381 14.553-6.381 4.045 0 7.833 1.167 11.361 3.502-.208 0-.415-.026-.623-.078-.985-.051-1.919.104-2.802.467-2.075.934-3.189 2.542-3.346 4.825-.052.571-.027 1.115.077 1.634l-14.553 7.548c-1.089-.778-2.231-1.219-3.423-1.323-.881-.051-1.762.079-2.646.39zm15.955 19.533c.571 1.712 1.737 2.725 3.502 3.035-.934.208-2.102.312-3.502.312-3.216 0-6.278-.752-9.182-2.258-4.671-2.437-7.887-6.147-9.652-11.129 1.194 1.505 2.725 2.362 4.591 2.568 1.454.104 2.829-.285 4.125-1.167l10.039 6.071-.039.349c-.025.181-.063.324-.116.428-.051.572.026 1.17.234 1.791zm19.921-16.576c0 2.958-.648 5.785-1.945 8.482-2.229 4.773-5.81 8.146-10.739 10.119.881-.831 1.375-1.842 1.479-3.035.052-.727-.052-1.454-.312-2.179-.725-1.661-1.971-2.544-3.735-2.646-1.296-.104-2.438.284-3.425 1.167l-9.649-5.837c.467-.829.752-1.737.856-2.723.104-1.142-.077-2.154-.543-3.035l14.007-7.316c1.038 1.141 2.335 1.816 3.891 2.023.934.052 1.867-.104 2.802-.466 2.075-.934 3.216-2.542 3.425-4.825 0-.727-.052-1.323-.156-1.79 2.644 3.527 3.994 7.548 4.044 12.061z"/></svg>