<svg xmlns="http://www.w3.org/2000/svg" width="39.924" height="39.922" viewBox="0 0 39.924 39.922"><path fill="#fff" d="M33.62 5.369c4.201 3.943 6.304 8.794 6.304 14.553 0 5.24-1.792 9.805-5.371 13.697-3.995 4.202-8.871 6.304-14.629 6.304-5.189 0-9.729-1.79-13.621-5.37-4.201-3.994-6.303-8.872-6.303-14.631 0-4.046 1.116-7.73 3.347-11.05l.077-.233.156-.079c.571-.778 1.194-1.531 1.867-2.256 3.944-4.203 8.769-6.304 14.477-6.304 5.291 0 9.857 1.79 13.696 5.369zm-1.013 7.939c-.779.311-1.712.57-2.802.778 1.038-.674 1.737-1.583 2.102-2.724-1.089.623-2.102 1.011-3.034 1.167-.884-.934-2.051-1.426-3.502-1.479-.728 0-1.454.182-2.18.545-1.764.882-2.647 2.309-2.647 4.28 0 .207.053.571.156 1.089-4.045-.259-7.366-1.946-9.96-5.059-.415.727-.623 1.531-.623 2.413.052 1.712.779 3.061 2.179 4.047-1.35-.052-2.05-.259-2.102-.623v.078c0 .467.079.935.233 1.401.519 1.868 1.712 2.983 3.581 3.346-.571.104-1.013.156-1.323.156h-.467c-.208-.052-.364-.078-.469-.078.053.207.156.416.312.623.882 1.763 2.282 2.671 4.203 2.724-1.765 1.297-3.762 1.972-5.992 2.022-.469 0-.856-.025-1.169-.077 2.18 1.401 4.644 2.126 7.395 2.179 3.683 0 6.822-1.218 9.415-3.658 2.854-2.75 4.281-6.095 4.281-10.039v-.623c.779-.621 1.582-1.451 2.413-2.488z"/></svg>