<svg xmlns="http://www.w3.org/2000/svg" width="39.923" height="39.922" viewBox="0 0 39.923 39.922"><path fill="#fff" d="M33.619 5.369c4.202 3.943 6.304 8.794 6.304 14.553 0 5.24-1.792 9.805-5.37 13.697-3.996 4.202-8.872 6.304-14.63 6.304-5.189 0-9.729-1.79-13.619-5.37-4.202-3.994-6.304-8.872-6.304-14.631 0-5.188 1.789-9.702 5.37-13.541 3.942-4.254 8.793-6.381 14.553-6.381 5.291 0 9.857 1.79 13.696 5.369zm2.723 15.798v-2.491c-.206-3.475-.311-5.239-.311-5.292l-.079-.622c-.052-.363-.182-.817-.388-1.362-.208-.545-.469-.947-.778-1.207-.728-.726-1.842-1.193-3.346-1.4-.417-.052-.856-.078-1.325-.078l-10.192-.077c-4.618-.104-8.458-.052-11.518.156l-.468.078c-.259 0-.467.013-.621.039-.157.026-.377.09-.662.193-.285.104-.546.234-.779.39-.233.156-.479.364-.738.623-.261.259-.494.622-.702 1.089l-.623 2.179-.387 5.292v2.491c.258 3.32.387 5.11.387 5.369.209 1.504.65 2.594 1.325 3.269.673.674 1.71 1.115 3.112 1.322.208.052.362.079.467.079 7.42.207 11.154.311 11.207.311 4.616 0 8.455-.104 11.518-.311l.311-.079h.428s.233-.025.467-.077.414-.104.545-.156c.13-.05.298-.129.506-.233.208-.103.401-.22.584-.35.182-.129.35-.299.506-.505.208-.26.414-.598.622-1.012l.623-2.257.309-5.371zm-10.738-1.556l-8.872 4.668v-.467h-.156l.079-9.027.077.155 8.872 4.671z"/></svg>