<svg xmlns="http://www.w3.org/2000/svg" width="40" height="40" viewBox="0 0 40 40"><path fill="#fff" d="M12.218 20.312l-9.649 9.571c-1.713-3.062-2.569-6.355-2.569-9.883 0-3.424.804-6.588 2.413-9.494l9.805 9.806zm-7.393-13.23c.208-.259.441-.519.702-.778 3.993-4.203 8.82-6.304 14.473-6.304.467 0 .96.026 1.479.078 5.552.415 10.143 2.724 13.774 6.926l-15.174 15.174-15.254-15.096zm30.117 26.225c-.104.104-.233.26-.39.466-3.943 4.152-8.792 6.227-14.552 6.227-5.862-.052-10.842-2.283-14.942-6.693l10.118-10.039 3.191 3.268c.467.364.985.57 1.556.623h.233c.467 0 .96-.207 1.479-.623l3.189-3.268 10.118 10.039zm2.646-22.802c1.608 2.854 2.412 6.019 2.412 9.495 0 3.477-.856 6.771-2.568 9.884l-9.572-9.571 9.728-9.808z"/></svg>