<svg xmlns="http://www.w3.org/2000/svg" width="39.923" height="40" viewBox="0 0 39.923 40"><path fill="#fff" d="M33.543 5.37c4.253 3.943 6.38 8.819 6.38 14.63 0 3.787-1.037 7.315-3.112 10.585-2.854 4.514-6.797 7.445-11.829 8.792v-12.918h4.203l.621-5.058h-4.824v-3.425c.104-1.245.935-2.049 2.491-2.413h2.568v-4.513c-.831-.104-2.077-.156-3.737-.156-.725 0-1.452.104-2.179.312-2.802.779-4.202 2.854-4.202 6.226v3.969h-4.435v5.058h4.435v13.541c-5.238-.052-9.78-1.816-13.619-5.292-4.201-3.942-6.304-8.846-6.304-14.708 0-5.188 1.739-9.727 5.215-13.618 3.942-4.255 8.819-6.382 14.631-6.382 5.239 0 9.805 1.79 13.697 5.37z"/></svg>