<?xml version="1.0" encoding="utf-8"?>
<!-- Generator: Adobe Illustrator 18.1.1, SVG Export Plug-In . SVG Version: 6.00 Build 0)  -->
<svg version="1.1" id="Layer_1" xmlns="http://www.w3.org/2000/svg" xmlns:xlink="http://www.w3.org/1999/xlink" x="0px" y="0px"
	 width="13.4px" height="13px" viewBox="0 0 13.4 13" enable-background="new 0 0 13.4 13" xml:space="preserve">
<path fill="#2D8EA3" d="M7.4,0.5l1.1,3.3c0.1,0.3,0.4,0.5,0.7,0.5h3.5c0.7,0,1,0.9,0.4,1.3l-2.9,2.2C10,8,9.9,8.3,10,8.6l1.1,3.4
	c0.2,0.7-0.5,1.2-1.1,0.8l-2.8-2c-0.3-0.2-0.6-0.2-0.9,0l-2.8,2.1c-0.6,0.4-1.3-0.1-1.1-0.8l1.1-3.5c0.1-0.3,0-0.6-0.3-0.8L0.3,5.6
	C-0.3,5.2,0,4.3,0.7,4.3h3.5c0.3,0,0.6-0.2,0.7-0.5L6,0.5C6.2-0.2,7.2-0.2,7.4,0.5z"/>
</svg>
