<svg xmlns="http://www.w3.org/2000/svg" width="60" height="48.762" viewBox="0 0 60 48.762"><path fill="#38A8E0" d="M60 5.772c-2.207.979-4.579 1.642-7.069 1.938 2.541-1.523 4.494-3.936 5.412-6.811-2.378 1.41-5.013 2.436-7.817 2.986-2.245-2.39-5.444-3.885-8.985-3.885-6.799 0-12.31 5.512-12.31 12.311 0 .964.108 1.903.318 2.805-10.23-.514-19.3-5.415-25.371-12.862-1.06 1.817-1.666 3.932-1.666 6.188 0 4.271 2.172 8.039 5.476 10.246-2.018-.063-3.916-.617-5.576-1.539l-.002.154c0 5.965 4.243 10.94 9.875 12.071-1.033.281-2.121.432-3.243.432-.793 0-1.564-.076-2.316-.221 1.566 4.891 6.113 8.449 11.499 8.549-4.212 3.303-9.521 5.27-15.288 5.27-.993 0-1.974-.059-2.937-.172 5.447 3.492 11.918 5.531 18.87 5.531 22.642 0 35.024-18.758 35.024-35.025 0-.534-.013-1.064-.037-1.593 2.407-1.736 4.494-3.905 6.143-6.373z"/></svg>