<?xml version="1.0" encoding="utf-8"?>
<!-- Generator: Adobe Illustrator 16.0.4, SVG Export Plug-In . SVG Version: 6.00 Build 0)  -->
<!DOCTYPE svg PUBLIC "-//W3C//DTD SVG 1.1//EN" "http://www.w3.org/Graphics/SVG/1.1/DTD/svg11.dtd">
<svg version="1.1" id="Layer_1" xmlns="http://www.w3.org/2000/svg" xmlns:xlink="http://www.w3.org/1999/xlink" x="0px" y="0px"
	 width="30.596px" height="25px" viewBox="0 0 30.596 25" enable-background="new 0 0 30.596 25" xml:space="preserve">
<path fill="#38A8E0" d="M30.596,2.984c-1.12,0.498-2.363,0.871-3.607,0.995c1.244-0.746,2.24-1.99,2.736-3.482
	c-1.243,0.746-2.611,1.244-3.98,1.493C24.627,0.747,23.011,0,21.144,0c-3.483,0-6.219,2.862-6.219,6.219
	c0,0.498,0,0.996,0.124,1.493C9.824,7.461,5.223,4.975,2.114,1.12c-0.497,0.871-0.87,1.99-0.87,3.109
	c0,2.239,1.119,4.104,2.735,5.224c-0.995,0-1.989-0.373-2.86-0.747v0.125c0,2.984,2.115,5.597,5.101,6.219
	c-0.498,0.124-1.12,0.249-1.618,0.249c-0.373,0-0.746,0-1.119-0.125c0.746,2.486,3.109,4.353,5.846,4.353
	c-2.114,1.742-4.851,2.736-7.836,2.736c-0.497,0-0.994,0-1.491-0.124C2.735,23.879,6.094,25,9.575,25
	c11.568,0,17.911-9.577,17.911-17.911c0-0.249,0-0.497,0-0.871C28.731,5.349,29.725,4.229,30.596,2.984z"/>
</svg>
