<?xml version="1.0" encoding="utf-8"?>
<!-- Generator: Adobe Illustrator 19.0.0, SVG Export Plug-In . SVG Version: 6.00 Build 0)  -->
<svg version="1.1" id="Layer_1" xmlns="http://www.w3.org/2000/svg" xmlns:xlink="http://www.w3.org/1999/xlink" x="0px" y="0px"
	 width="23.2px" height="36px" viewBox="0 0 23.2 36" style="enable-background:new 0 0 23.2 36;" xml:space="preserve">
<style type="text/css">
	.st0{fill:#AAAAAA;}
</style>
<path class="st0" d="M22.7,16.3l-0.3-0.5l-0.2-0.3l-14-14l0,0L8,1.4C7.1,0.5,6,0,4.7,0C3.4,0,2.2,0.5,1.4,1.4L1.2,1.5
	C0.5,2.4,0,3.5,0,4.7C0,5.9,0.5,7,1.2,7.8l0.2,0.2L11,18l-9.4,9.7L1,28.4c-0.6,0.8-1,1.8-1,2.9c0,1.2,0.4,2.3,1.2,3.1l0.4,0.4
	C2.4,35.6,3.5,36,4.7,36c1.1,0,2.2-0.4,3-1.1l0.6-0.6l13.8-13.8l0.1-0.2l0.1-0.1c0.5-0.6,0.8-1.4,0.8-2.2
	C23.2,17.4,23,16.8,22.7,16.3z"/>
</svg>
