<?xml version="1.0" encoding="utf-8"?>
<!-- Generator: Adobe Illustrator 16.0.4, SVG Export Plug-In . SVG Version: 6.00 Build 0)  -->
<!DOCTYPE svg PUBLIC "-//W3C//DTD SVG 1.1//EN" "http://www.w3.org/Graphics/SVG/1.1/DTD/svg11.dtd">
<svg version="1.1" id="Layer_1" xmlns="http://www.w3.org/2000/svg" xmlns:xlink="http://www.w3.org/1999/xlink" x="0px" y="0px"
	 width="23.203px" height="36px" viewBox="0 0 23.203 36" enable-background="new 0 0 23.203 36" xml:space="preserve">
<path fill="#AAAAAA" d="M22.724,16.263l-0.331-0.467l-0.226-0.294L8.148,1.503L8.119,1.471l-0.123-0.12C7.146,0.516,5.986,0,4.703,0
	C3.415,0,2.242,0.521,1.393,1.362l-0.17,0.18C0.463,2.375,0,3.486,0,4.7c0,1.203,0.451,2.301,1.195,3.132l0.234,0.243l9.542,9.936
	l-9.354,9.738l-0.589,0.615C0.383,29.167,0,30.186,0,31.3c0,1.192,0.445,2.285,1.181,3.111l0.41,0.416
	C2.423,35.561,3.507,36,4.703,36c1.134,0,2.177-0.4,2.988-1.072l0.624-0.621l13.848-13.781l0.149-0.164l0.123-0.145
	c0.479-0.598,0.768-1.359,0.768-2.188C23.204,17.385,23.028,16.781,22.724,16.263z"/>
</svg>
